<?xml version="1.0" encoding="UTF-8"?>
<svg id="Layer_1" data-name="Layer 1" xmlns="http://www.w3.org/2000/svg" viewBox="0 0 1200 200">
  <defs>
    <style>
      .cls-1 {
        letter-spacing: 0em;
      }

      .cls-2 {
        fill: #fff;
      }

      .cls-3 {
        fill: #27a8e0;
      }

      .cls-4 {
        font-family: Signika-Bold, Signika;
        font-size: 200px;
        font-variation-settings: 'wght' 700, 'GRAD' 0;
        font-weight: 700;
      }

      .cls-4, .cls-5 {
        fill: #aa1c93;
      }

      .cls-6 {
        letter-spacing: 0em;
      }
    </style>
  </defs>
  <g>
    <path class="cls-2" d="M141.23,69.79c-2.06,1.95-3.37,4.72-3.59,7.6-.04.48-.04.97.11,1.42.23.66.81,1.18,1.48,1.3,1,.19,2-.48,2.61-1.32s.96-1.85,1.46-2.78c.83-1.55,2.12-2.86,3.7-3.54s3.46-.68,4.97.15c.53.29,1,.67,1.43,1.09,1.31,1.29,2.23,3.07,2.29,4.94.02.75-.09,1.5-.29,2.22-.49,1.78-1.55,3.43-3.08,4.41-2.15,1.37-5.11,1.19-7.13-.37s-3.02-4.41-2.51-6.97c.1-.52.22-1.16-.18-1.49-.16-.13-.37-.17-.56-.2-.6-.11-1.2-.22-1.79-.33-.66-.12-1.37-.23-1.95.11-.74.44-.96,1.44-1,2.32-.13,3.44,1.54,6.9,4.28,8.85s6.45,2.34,9.51,1c1.25-.55,2.39-1.37,3.24-2.46.67-.86,1.14-1.86,1.55-2.88.5-1.24.93-2.54,1-3.88.05-1.02-.11-2.05-.26-3.06-.14-.88-.28-1.77-.63-2.58-.47-1.1-1.3-1.98-2.11-2.85-.67-.71-1.36-1.44-2.23-1.85-.76-.36-1.6-.46-2.43-.53-1.08-.09-2.16-.15-3.24-.18-.76-.02-1.54-.02-2.27.2-1.29.4-2.22,1.5-2.39,1.65Z"/>
    <path class="cls-2" d="M147,75.82c-.82.07-1.44.92-1.51,1.77-.02.24,0,.49.1.71.08.18.22.33.37.45.44.38.98.61,1.55.67.19.02.39.02.57-.04.38-.13.64-.5.86-.85.13-.22.27-.44.32-.69.07-.32,0-.67-.13-.97-.22-.47-.61-.85-1.09-1.04s-1.01-.18-1.04-.02Z"/>
    <path class="cls-2" d="M165.49,66.06c-2.11,1.13-3.74,3.15-4.57,5.46s-.9,4.88-.35,7.28c.16.69.37,1.38.69,2.01.48.94,1.18,1.74,1.91,2.48.68.69,1.42,1.36,2.28,1.78.7.34,1.48.5,2.24.63.89.15,1.79.25,2.69.23.55-.01,1.14-.08,1.58-.43s.63-1.08.27-1.51c-.31-.37-.84-.37-1.31-.39-1.91-.09-3.8-.93-5.09-2.39s-1.95-3.53-1.65-5.48c.13-.84.43-1.65.82-2.39.38-.73.86-1.42,1.45-1.97,1.8-1.69,4.64-2.03,6.81-.89s3.56,3.65,3.54,6.17c-.04,3.15-2.34,6.12-5.3,6.83-.4.1-.86.19-1.07.55-.25.43.01,1.02.44,1.26s.94.2,1.42.1c1.74-.38,3.26-1.55,4.35-3.01,1.37-1.83,2.12-4.14,2.18-6.46s-.57-4.64-1.71-6.63c-.4-.7-.87-1.37-1.46-1.92-.6-.55-1.31-.96-2.05-1.29-2.57-1.14-5.64-1.32-8.1-.01Z"/>
    <path class="cls-2" d="M167.96,73.69c-.41-.07-.78.26-1.06.58-.27.32-.51.69-.56,1.12-.07.63.3,1.22.73,1.67.27.28.6.54.98.59.54.07,1.06-.29,1.43-.7.34-.37.62-.8.74-1.29s.04-1.05-.27-1.43c-.13-.17-.31-.29-.49-.4-.51-.3-1.16-.43-1.5-.14Z"/>
    <g>
      <g>
        <path class="cls-3" d="M143.18,88.27c-1.17-.62-2.27-1.39-3.18-2.37-2.06-2.23-2.98-5.47-2.61-8.54.36-3.06,1.94-5.91,4.15-7.98.06-.05.12-.11.13-.19.04-.21-.26-.3-.47-.28-2.86.26-5.64,1.73-7.39,4.09s-2.43,5.58-1.62,8.44c.23.83.58,1.61.96,2.38.33.67.69,1.32,1.14,1.92.63.83,1.42,1.52,2.22,2.18.3.25.61.49.96.67.43.22.9.33,1.36.44,1.5.35,3.24,1.39,5.16.48.13-.06.27-.13.4-.19-.19-.51-.72-.79-1.2-1.04Z"/>
        <path class="cls-3" d="M167.22,85.85c-1.26-.7-2.72-1.06-3.83-1.99-.35-.29-.66-.63-.94-.99-1.67-2.1-2.55-4.84-2.44-7.55.11-2.71,1.02-5.6,3.4-7.63.48-.4.94-.82,1.39-1.25-.13-.23-.44-.25-.7-.22-2.62.24-5.01,1.68-7,3.46-.49.44-.97.92-1.17,1.56-.3.96.11,1.98.42,2.93.69,2.17.81,4.52.35,6.75-.09.42-.2.85-.17,1.29.02.37.15.73.31,1.06.59,1.24,1.68,2.17,2.9,2.75,1.21.58,2.55.83,3.88.96,1.23.12,2.56.12,3.59-.59.12-.08.24-.21.2-.35-.03-.09-.11-.14-.19-.19Z"/>
      </g>
      <g>
        <path class="cls-5" d="M126.14,116.81c-.06-.17-.13-.34-.18-.5-.27-.77-.42-.4.18.5Z"/>
        <path class="cls-5" d="M218.39,86.46c-.36-.02-.71-.05-1.07-.1.04.02-.08.02-.37,0h-1.61c-3.32,0-6.62-.59-9.83-1.4-1.71-.43-3.33-1.27-4.82-2.22-2.05-1.3-3.34-3.32-3.82-5.74-.09-.45-.16-.91-.21-1.37.02.2,0,.24-.04-.29,0-.02,0-.05-.01-.07-.19-.89-.29-1.86-.25-2.78.11-2.23.92-4.35,2.44-5.95.34-.35,2.1-2.06,1.24-1.07-.73.83.62-.52.59-.49.97-.78,1.79-1.18,2.96-1.66.14-.06.29-.11.43-.17-1.7-3.4-1.92-6.98-1.21-10.71-.81-.6-.94-1.92-1.64-2.7-.18-.2-.39-.36-.62-.48-.09-.18-.2-.35-.3-.53-.68-1.15-1.4-2.36-1.43-3.71-.02-.94.29-1.84.61-2.72,1.05-2.95,2.09-5.9,3.14-8.85.12-.35.25-.71.21-1.07-.04-.37-.24-.71-.45-1.02-.59-.87-1.28-1.69-2.1-2.32-1.64-1.26-3.77-1.74-5.8-1.53-2.03.21-3.97,1.07-5.66,2.26-.73.51-1.42,1.09-2.24,1.44-.82.34-1.8.41-2.53-.1-.51-.35-.87-.96-1.47-1.13-.22-.06-.44-.05-.65,0,0,0,0,0,0,0-.39-.35-.92-.49-1.32-.82-.51-.43-.72-1.11-.88-1.77-.86-3.71-.4-7.64-1.16-11.37-.08-.4-.19-.82-.45-1.13-.25-.3-.61-.46-.96-.61-2.39-.98-4.96-1.5-7.54-1.53-.79,0-1.62.04-2.32.44-.61.35-1.06.94-1.49,1.51-.55.73-1.11,1.47-1.66,2.2,2.66,1.52,3.49,5.59,2.02,8.24-.2.35-.44.69-.71,1.01-1.74,2.09-4.65,2.57-7.09,1.43-.09,0-.16,0-.2,0-.26.01-.9.15-.13-.07.05-.01.09-.03.13-.04,0,0-.01,0-.02,0-.17.04-.37.09-.46.11-.51.07-1.02.14-1.53.21.25-.04.49-.08.74-.12-.36-.08-1.26.21-1.56.25-.79.11-1.48.16-2.27.11-.24-.01-.48-.01-.72-.02-.6-.02-2.5-.67-1.54-.16.19-.02.34-.02.14.04.32.05.34.07.04.06-.12,0-.23,0-.35.01-.03,0-.07.01-.1.02-.57.12-1.14.21-1.7.36-1.23.33-2.39.88-3.61,1.23-.79.23-1.62.32-2.43.43-1,.13-1.02.14-.06.04-.13.03-.27.07-.4.1-.26.08-.53.15-.8.21-.78.19-1.56.38-2.36.49-.11.02-.22.03-.33.05-.24.08-.52.08-.77.13-.85.15-1.71.42-2.54.72-.82.38-1.71.58-2.75.58-2.71,0-5.05-2.06-5.62-4.71-2.75-1.87-5.26-4.56-8.48-5.18-3.37-.65-6.82,1.21-9.1,3.86-.26.3-.51.62-.6,1.01-.1.46.04.93.18,1.37,1.11,3.48,2.22,6.96,3.33,10.44.09.28.18.57.11.85-.05.22-.19.4-.33.57-1.92,2.36-4.23,4.6-4.97,7.59-.02.09-.04.18-.06.27-4.42-.33-8.85-.34-13.27-.04-.31.02-.64.05-.9.22-.32.21-.48.59-.63.95-.65,1.59-1.3,3.19-1.96,4.78-.15.37-.3.78-.17,1.15.1.27.32.47.54.65,2.85,2.39,5.59,4.92,8.2,7.59.22.23.45.47.52.79.05.27-.03.55-.1.81-.74,2.6-1.14,5.31-1.19,8.02-.02.95,0,1.96-.53,2.75-.43.66-1.16,1.02-1.86,1.36-3.06,1.49-6.11,2.98-9.17,4.46-.47.23-.98.49-1.22.97-.2.39-.17.86-.15,1.3.09,1.51.18,3.01.28,4.52.02.25.03.51.16.73.3.52,1.01.54,1.6.49.07,0,.13-.01.2-.02,3.04,1.58,6.47,2.27,9.8,3.06.51.12,1.04.26,1.42.62.35.33.52.8.69,1.26,1.01,2.75,2.02,5.49,3.03,8.24.13.37.27.75.25,1.14-.03.53-.33.99-.63,1.42l-5.93,8.65c-.34.49-.69,1.01-.74,1.61-.05.55.16,1.09.37,1.61.66,1.64,1.49,3.45,3.11,4.03.87.31,1.82.2,2.74.06,3.8-.56,7.55-1.43,11.22-2.61.02,0,.04-.01.06-.02.52.77,1.13,1.48,1.8,2.09,1.29,1.18,2.79,2.1,4.11,3.24.31.27.62.55.79.93.27.58.17,1.26.07,1.89-.57,3.58-1.15,7.16-1.72,10.74-.06.38-.12.78.01,1.13.15.4.5.68.83.93l2.85,2.14c.73.55,1.51,1.12,2.41,1.18.8.06,1.57-.28,2.35-.44.84-.16,1.73-.11,2.51-.46.6-.27,1.09-.75,1.57-1.21,1.66-1.64,3.32-3.28,4.98-4.92.43-.42.86-.86,1.1-1.42,1.81-.35,3.69.06,5.5.47.6.14,1.22.28,1.71.66.68.52,1,1.4,1.27,2.23.86,2.58,1.63,5.19,2.31,7.83.25.98.57,2.07,1.42,2.56.6.35,1.34.3,2.03.25,2.7-.2,5.4-.4,8.1-.6.43-.03.9-.08,1.23-.37.27-.24.39-.6.51-.94,1.01-2.98,1.63-6.14,3.58-10.2.25-.52.5-1.04.73-1.58,1.59-.47,3.17-.95,4.76-1.42,1.12.25,2.04,1.1,2.89,1.92,1.38,1.33,2.76,2.66,4.14,3.99.61.59,1.27,1.2,2.08,1.41.58.15,1.19.07,1.78-.03,2.46-.43,4.84-1.35,6.98-2.69.41-.26.83-.55,1.09-.97.42-.67.38-1.53.32-2.32l-.65-9.11c-.06-.86-.33-2.17.98-2.89.31-.17.55-.43.74-.73.8-.55,1.55-1.17,2.22-1.88.38-.41.74-.86,1.22-1.15.69-.42,1.54-.45,2.33-.3.79.14,1.54.45,2.31.66,1.66.46,3.4.49,5.12.52.86.02,1.75.03,2.56-.27,1.55-.56,2.53-2.1,3.4-3.54.43-.71.88-1.47.88-2.31,0-.54-.18-1.06-.39-1.56-1.33-3.2-3.63-5.85-5.39-8.81-.11-.18-.21-.36-.32-.54,1.32-2.52,2.04-5.37,2.87-8.13.13-.44.28-.89.59-1.22.31-.33.75-.48,1.18-.62,2.86-.95,5.76-1.76,8.69-2.44.4-.09.82-.2,1.1-.5.27-.29.35-.7.43-1.09.18-.89.36-1.78.54-2.67-.35.03-.7.05-1.06.05ZM185.6,79.07c-.45,3.86-.69,7.79-1.95,11.45-.43,1.26-.99,2.49-1.35,3.77-.16.24-.32.49-.47.74-2.94,4.81-6.33,9.4-10.61,12.98-3,2.51-6.46,4.49-10.16,5.55.28,1.41.03,2.97-.65,4.21-.05.09-.1.19-.15.28-.03.08-.06.17-.09.25.03-.08.06-.16.1-.24-.15.5-.34.96-.57,1.4,0,0,0,.02,0,.02,0,0,0-.01,0-.02-.29.56-.66,1.07-1.13,1.56-.83.86-1.86,1.37-2.97,1.6-.26.41-.55.79-.86,1.11-2.44,2.5-6.38,2.98-9.28,1.06-.44-.29-.88-.63-1.29-1-.67-.17-1.34-.38-1.99-.59-.95-.3-1.89-.6-2.86-.83-.39-.09-.79-.16-1.19-.25-.05-.01-.1-.02-.15-.03-.06,0-.12-.01-.2-.02h-.23c-1.03-.04-2.07.03-3.08.18-.28.04-.25.04-.11.02.23-.04.48-.08.62-.07-.01,0-.42.05-.62.07-.22.04-.42.08-.47.09-.97.13-1.86.17-2.83-.16-2.3-.77-3.8-2.44-4.67-4.74-.08-.2-.15-.41-.22-.61-.16-.22-.31-.44-.43-.64-.64-1.09-.9-2.39-1.16-3.62-.11-.5-.21-1.06-.25-1.59-.1-.65-.18-1.29-.13-1.95.3-4.1,3.38-7.04,7.11-7.07-2.97-3.79-5.37-8.07-6.66-12.75-1.74-6.31-1.38-13.08-.05-19.5.23-1.12.49-2.23.71-3.34.52-1.14,1.03-2.29,1.6-3.4,1.63-3.18,3.74-6.1,6.22-8.62,1.05-1.07,2.2-2.1,3.19-3.24l3.85-3.2c.67-.27,1.31-.66,1.95-1.02,2.13-1.18,4.45-1.95,6.76-2.7,1.37-.45,2.74-.9,4.17-1.07,1.11-.13,2.24-.09,3.34-.22.14.21.3.39.49.55.44.36.98.55,1.51.73,4.12,1.39,8.68,2.35,12.45,5.92.42.4.97.82,1.51.92.61.67,1.36,1.25,2.04,1.85,2.81,2.47,4.8,5.76,7.05,8.8.23,1.67,1.1,3.28,1.78,4.86,1.58,3.69,2.15,7.75,2.48,11.77,0,.03,0,.07,0,.1-.04.22-.07.44-.09.66Z"/>
      </g>
      <g>
        <path d="M164.48,17.15c.25-.36.51-.72.77-1.06,1.69-.88,3.45-1.62,5.13-2.53.12-.07.25-.14.34-.25.02-.03.04-.06.05-.09.27-.03.55-.05.82-.08-.24.36-.49.71-.74,1.07-2.04,1.03-4.07,2.09-6.09,3.16.14.11.26.24.39.37,1.57-.76,3.16-1.46,4.75-2.18-.35.5-.7.99-1.06,1.48-.98.44-1.95.87-2.92,1.31-.07.03-.14.06-.2.09.12.18.23.37.33.56.65-.27,1.3-.52,1.94-.8-.26.35-.51.7-.77,1.05-.28.16-.57.31-.85.46.24.63.38,1.3.43,1.97.16-.26.33-.53.48-.8.72-1.03,1.45-2.05,2.17-3.08,1.08-1.53,2.16-3.07,3.13-4.67,0-.01.02-.03.03-.04.12.03.25.06.37.09,1.57.41,3.12.92,4.63,1.54.04.02.08.03.12.05.11.12.21.27.28.42.2.41.26.87.31,1.32.46,3.98.47,8,.92,11.97.02.15.04.3.11.42.06.1.14.18.24.23.05.05.11.08.17.12,2.12,1.24,4.43,2.22,6.22,3.94.16.15.32.31.48.46.03.04.07.07.11.1,0,0,.02.02.03.02.08.06.17.12.26.1.04-.01.08-.04.11-.07,0,0,.02-.01.02-.02.11-.03.21-.08.31-.13l10.67-5.5c.16-.08.34-.17.51-.11.11.03.19.12.27.2l3.27,3.35c.09.09.18.19.23.32.01.04.02.07.02.11-1.41,4.21-2.82,8.43-4.23,12.64-.07.22-.15.45-.1.67.03.14.1.27.17.39,1.34,2.37,2.67,4.73,4.01,7.1.07.13.15.27.28.34.08.04.17.06.26.06.05-.33.11-.67.18-1,.03-.15.06-.29.1-.44-.11-.13-.2-.28-.29-.42-.49-.82-.9-1.69-1.38-2.52-.58-.99-1.27-1.92-1.83-2.93-.14-.24-.26-.5-.32-.77-.01-.07-.02-.15-.02-.23,1.29-4.08,2.91-8.04,4.22-12.11.12-.27.22-.55.26-.84.01-.1.02-.21-.01-.3-.03-.1-.1-.18-.17-.26-.03-.03-.05-.06-.08-.09-1.08-1.13-2.16-2.25-3.25-3.38-.27-.28-.54-.56-.83-.81-.19-.16-.39-.3-.62-.38-.34-.12-.71-.07-1.07,0-1.31.06-2.63.13-3.94.2-.24.01-.48.03-.72.09-.29.08-.56.23-.83.38-1.95,1.11-3.9,2.23-5.85,3.34-.38.21-.81.43-1.22.36-1.05-.78-2.17-1.46-3.34-2.03-.39-.19-.79-.37-1.14-.63-.12-.09-.24-.19-.33-.33-.04-.07-.08-.15-.1-.23-.08-4.19-.25-8.39-.85-12.53,0-.04,0-.07,0-.11-.02-.19-.05-.38-.08-.57-.03-.2-.07-.4-.19-.56-.12-.17-.3-.27-.48-.36-1.2-.62-2.5-1.01-3.8-1.39-.52-.15-1.04-.3-1.56-.46-.26-.08-.52-.15-.78-.16-.13,0-.27,0-.4.02-.11,0-.22.02-.32.04-1.14.17-2.28.34-3.42.51-.37.06-.75.11-1.08.29-.23.13-.44.31-.63.49-1.09,1.04-1.98,2.27-2.86,3.5.01.01.03.03.04.04.29.13.56.29.81.47ZM196.51,27.93c.18-.05.37-.04.56-.03-.88.49-1.76.98-2.64,1.47-.01,0-.02,0-.03,0,.55-.39,1.1-.79,1.65-1.18.14-.1.29-.21.46-.26ZM194.33,27.95c.33.02.66.04.99,0,.02,0,.03,0,.05,0-1.12.68-2.24,1.36-3.36,2.04-.62.38-1.23.75-1.83,1.15-.63.35-1.25.72-1.86,1.1-.41.22-.82.45-1.22.67-.12-.11-.24-.22-.36-.33.06-.03.12-.07.17-.11,1.93-1.48,4.14-2.51,6.22-3.75.41-.24.81-.5,1.21-.76ZM186.2,31.87c1.71-1.01,3.42-2.03,5.13-3.04.59-.35,1.2-.7,1.86-.84-2.27,1.39-4.52,2.83-6.72,4.33-.14-.12-.28-.25-.42-.37.06-.02.11-.05.16-.08ZM167.04,13.97c.13-.14.26-.28.42-.36.17-.09.37-.11.57-.13.42-.04.84-.08,1.26-.12-1.03.51-2.02,1.09-3.07,1.53.27-.31.54-.63.82-.93Z"/>
        <path d="M219.67,86.39c-.27.02-.53.04-.8.05-.16,1.05-.32,2.1-.5,3.15-.04.07-.09.14-.15.2-.13.13-.3.21-.47.28-.88.36-1.8.6-2.73.84-2.48.64-4.95,1.29-7.43,1.93-.18.05-.36.09-.52.2-.38.26-.47.77-.53,1.24-.51,1.99-1.04,3.97-1.79,5.87-.22.57-.47,1.12-.71,1.68-.21.37-.4.75-.57,1.15-.04.1-.08.2-.09.3-.01.19.09.37.18.53.28.45.54.85.82,1.23,1,1.57,2.01,3.15,3.01,4.72.82,1.28,1.63,2.56,2.34,3.91.08.14.15.3.19.46-.03.23-.09.45-.17.67-.85,1.3-1.7,2.6-2.55,3.9-.08.12-.16.24-.29.3-.11.05-.23.03-.34.02-.8-.1-1.57-.35-2.34-.59-2.75-.85-5.5-1.66-8.27-2.43-.09-.03-.2-.05-.29-.02-.07.03-.12.08-.17.14-.61.69-1.21,1.38-1.82,2.07-.04.04-.08.09-.11.14-1.58,1.75-3.3,3.35-5.09,4.88-.14.09-.28.18-.41.29-.1.08-.19.17-.25.28-.07.11-.11.23-.11.36h0c-.01.11,0,.23,0,.35.03.42.07.85.11,1.27.35,3.53.7,7.06,1.06,10.58,0,.09.02.18.01.27-.04.12-.1.23-.18.33-.18.24-.43.41-.67.57-1.1.72-2.25,1.35-3.4,1.97-.3.16-.6.32-.9.46-2.76-2.79-5.53-5.57-8.29-8.36-.11-.11-.23-.23-.38-.28-.12-.04-.27-.02-.37.06-3.21,1.34-6.56,2.31-9.98,2.88-.09-.01-.18,0-.26.05-.12.08-.17.24-.22.38-1.26,3.89-2.51,7.77-3.77,11.66-.07.22-.14.44-.24.64-.03.04-.05.09-.07.13-.07.11-.14.22-.24.31,0,0-.02,0-.03,0l-5.59.1c-.2,0-.42,0-.55-.16-.02-.02-.04-.05-.05-.08-.52-1.67-1.05-3.34-1.58-5.01-.64-2.32-1.28-4.64-2.16-6.88-.02-.09-.04-.19-.07-.28-.04-.15-.08-.31-.15-.45-.02-.04-.04-.08-.08-.12,0,0-.02-.01-.03-.02,0,0,0-.01-.02-.02-.07-.04-.15-.05-.23-.06-3.1-.36-6.17-1.1-9.1-2.22-.12-.05-.24-.09-.37-.12-.15-.07-.34-.09-.5-.05-.32.09-.57.34-.8.58-2.79,2.88-5.69,5.65-8.67,8.31-.35.32-.79.65-1.24.65-.11-.04-.21-.09-.31-.14-1.28-.68-2.55-1.39-3.76-2.18-.29-.19-.58-.39-.83-.63-.14-.22-.11-.52-.08-.79.23-1.59.54-3.16.76-4.74.05-.4.1-.79.15-1.19.32-2.03.54-4.08.65-6.14.06-.36.11-.72.14-1.09.01-.16.02-.33-.06-.47-.05-.1-.13-.17-.21-.24-.14-.13-.29-.26-.45-.36-2.24-1.73-4.32-3.69-6.19-5.85,0,0,0,0,0,0-.04-.05-.07-.1-.11-.15-.05-.05-.1-.11-.16-.15,0,0,0,0,0,0,0,0,0,0,0,0,0,0,0,0,0,0-.02-.02-.05-.04-.08-.05-.04-.02-.08-.04-.12-.05-.12-.03-.25-.02-.37,0-.23.03-.46.07-.68.12-.27.06-.54.12-.8.2-.41.08-.82.16-1.23.25-.71.16-1.41.34-2.11.52-2.92.75-5.84,1.5-8.77,2.25-.08-.06-.15-.14-.21-.23-1.09-1.49-1.91-3.17-2.96-4.69-.08-.11-.16-.23-.22-.36-.01-.05-.02-.09-.02-.14-.01-.16.03-.32.09-.47,1.22-1.73,2.4-3.43,3.57-5.15,1.35-2.02,2.74-3.92,4.2-5.76.12-.15.25-.31.33-.49s.11-.4.05-.58c-.04-.13-.13-.23-.2-.34-.01-.03-.03-.06-.04-.08-1.32-2.53-2.2-5.28-2.9-8.07l-.37-1.61c0-.12-.05-.25-.14-.33-.04-.04-.08-.07-.13-.09-.08-.06-.18-.09-.28-.11-.02,0-.05-.01-.07-.02-4.23-1.11-8.47-2.17-12.73-3.11-.09-.04-.17-.08-.24-.15-.1-.09-.16-.2-.2-.33-.04-1.16-.09-2.32-.13-3.53-.02-.71-.03-1.43-.05-2.14,0-.04,0-.08,0-.12,0-.19.03-.38.11-.55.05-.11.13-.2.22-.28.16-.07.33-.15.49-.23,3.63-1.73,7.26-3.47,10.89-5.2.04-.02.08-.04.12-.06.03-.01.05-.02.08-.03.18-.09.35-.23.42-.43.04-.11.05-.24.06-.36,0-.1,0-.2-.01-.31.15-3.54.67-7.07,1.56-10.49.01-.06.03-.11.04-.17.03-.12.06-.25.04-.38-.02-.16-.11-.3-.21-.43-.02-.04-.04-.09-.07-.13-.47-.74-1.2-1.26-1.79-1.9-.13-.14-.26-.28-.4-.4-1.22-1.28-2.62-2.36-3.99-3.42-.99-.88-1.97-1.77-2.93-2.7-.13-.12-.26-.25-.31-.42-.04-.12-.04-.25-.01-.38,0-.02.02-.04.03-.05.88-1.75,1.49-3.64,2.35-5.4.02-.04.04-.07.05-.11.03-.03.06-.07.09-.1.08-.07.18-.12.28-.16,4.09.09,8.19-.2,12.27.13.23.02.47.04.69-.02.05-.01.09-.03.14-.05.06,0,.12,0,.18-.04.05-.03.08-.08.11-.13,1.04-1.62,2.09-3.25,3.2-4.82,1.1-1.41,2.21-2.82,3.44-4.11.1-.1.2-.21.2-.35,0-.03,0-.06,0-.09,0,0,0,0,0-.01,0-.07-.03-.14-.05-.21l-4.38-11.61c-.07-.18-.13-.36-.17-.54,0,0,0-.01,0-.02.02-.12.08-.22.16-.3,1.34-1.09,2.68-2.18,4.02-3.27.23-.19.49-.39.79-.4.28,0,.54.15.78.31,2.43,1.61,4.86,3.22,7.29,4.83-.07-.25-.13-.52-.17-.78.03.43,0,.25-.1-.57-.01-.09-.02-.16-.03-.24,0,0,0,0,0,0,.02.17.04.36.07.6-.1-.13-.17-.48-.21-.65,0-.02,0-.04-.01-.06-.93-.63-1.88-1.23-2.83-1.82-1.26-.78-2.51-1.56-3.77-2.34-.15-.09-.31-.18-.47-.26-.07-.05-.14-.09-.22-.13-.39-.18-.83-.16-1.26-.07-.19.02-.38.05-.57.07-.77.11-1.54.23-2.31.35-.34.05-.67.1-.99.22-.38.13-.72.35-1.06.57-1.08.71-2.12,1.48-3.11,2.31-.48.4-.94.81-1.4,1.23-.2.19-.42.38-.52.64-.06.14-.07.31-.04.46.01.09.03.18.06.26.08.26.17.53.25.79.98,3.61,2.16,7.16,3.55,10.62.12.29.23.59.26.9-.15.11-.3.23-.44.35-1.79,1.57-3.32,3.46-4.51,5.56-.3.54-.58,1.09-.75,1.68-.07,0-.14,0-.21,0-4.32-.17-8.65-.05-12.96.35-.18.02-.37.04-.54.12,0,0,0,0-.01,0-.1.03-.2.07-.28.14-.13.1-.22.26-.3.4-.31.56-.58,1.15-.85,1.73-.3.65-.6,1.31-.9,1.96-.34.75-.69,1.49-.93,2.28-.06.19-.11.38-.09.58.04.33.28.57.56.76,2.7,2.95,5.78,5.5,8.62,8.31.19.19.38.39.48.64,0,.01,0,.02.01.04-.01.06-.03.12-.04.18-.97,3.36-1.57,6.84-1.8,10.34,0,.12-.02.24-.03.35-.03.1-.06.2-.1.3-.17.42-.61.65-1.02.84-2.47,1.15-4.93,2.31-7.4,3.46-.81.28-1.59.6-2.26,1.06-.33.16-.66.33-.98.52-.15.08-.29.18-.41.3-.07.04-.12.1-.16.17-.06.1-.09.22-.1.34-.04.21-.04.44-.02.66.01,1.53.27,3.06.31,4.6.03.49.07.92.11,1.36.01.13.03.27.09.39.09.17.25.28.41.37.02,0,.03.01.05.02.08.05.16.08.25.12.03.01.07.03.11.04.02,0,.03.01.05.02.06.02.13.05.19.07,0,0,0,0,0,0,2.49.77,5,1.46,7.52,2.13.7.23,1.41.41,2.13.55.48.11.96.21,1.45.29.19.05.38.1.57.14.14.03.29.06.41.13.31.18.44.58.54.94.83,3.02,1.89,5.97,3.16,8.82,0,.01,0,.02.01.03.07.22.12.44.1.67-.01.1-.04.19-.07.29-.74,1.09-1.39,2.23-2.11,3.33-1.69,2.61-3.73,4.95-5.41,7.56-.1.15-.2.31-.23.49-.06.3.06.61.22.87.04.06.07.11.11.17.78,1.56,1.59,3.11,2.66,4.47.14.18.3.37.5.47.18.09.39.1.6.09.02,0,.04,0,.06,0,1.12,0,2.25-.03,3.37-.07.4-.01.81-.03,1.21-.08.47-.06.93-.18,1.38-.31.56-.15,1.12-.32,1.68-.49,1.57-.39,3.13-.79,4.7-1.18.37-.09.75-.19,1.13-.24.06,0,.13.02.19.05.15.06.27.17.39.27.11.1.23.21.34.31,1.02,1.15,2.15,2.2,3.35,3.13.74.64,1.51,1.23,2.35,1.74.24.14.49.29.61.55.02.04.03.09.05.13,0,.25-.05.51-.11.75-.93,4.16-1.81,8.37-1.92,12.64-.01.14-.02.29,0,.43,0,.1.01.19.04.28.07.23.27.4.47.54.1.07.21.14.31.2,1.38.96,2.8,1.86,4.28,2.63.31.16.63.32.97.39.38.08.78.05,1.17,0,.55-.06,1.1-.14,1.64-.24.65-.1,1.3-.2,1.95-.32.32-.06.64-.12.93-.27.26-.14.49-.34.71-.54,2.58-2.35,5.16-4.7,7.67-7.11.13-.1.26-.2.42-.24.21-.05.42.02.63.08,1.48.47,3,.8,4.53.98.16.02.33.04.47.12.08.05.15.11.21.18.84,2.86,1.69,5.72,2.6,8.56.31.96.63,1.91,1.02,2.83.18.41.38.82.7,1.12.01,0,.02.02.03.03.1.1.22.18.34.23,0,0,.01,0,.02,0,.14.06.29.1.44.1.19.02.39.02.58.02l5.18-.09c1.6-.03,3.21-.06,4.8-.26.27-.04.55-.08.79-.22.13-.08.24-.19.32-.32.13-.19.22-.41.31-.64,1.37-3.69,2.69-7.4,3.95-11.13l.46-1.17c.04-.06.08-.12.13-.17.2-.03.4-.07.6-.11,1.52-.3,3.03-.61,4.54-.92,1.53,1.59,3.07,3.17,4.66,4.69.81.78,1.64,1.54,2.51,2.25.4.33.9.67,1.4.56.14,0,.28,0,.41-.01.72-.04,1.43-.08,2.15-.12.53-.03,1.07-.07,1.59-.21.6-.15,1.16-.43,1.72-.72,1.39-.71,2.76-1.45,4-2.42.24-.19.49-.39.64-.66.15-.25.21-.56.18-.85,0-.15-.02-.3-.03-.45-.38-3.78-.72-7.57-1.02-11.36-.02-.21-.02-.44.04-.65.1-.18.26-.3.42-.42,1.6-1.2,3.1-2.54,4.48-4.01.04-.04.09-.07.13-.11.09-.07.18-.14.27-.19.2-.12.42-.21.64-.24,1.56.47,3.17.74,4.74,1.18.56.16,1.12.34,1.69.42.46.06.93.06,1.37-.06.17-.02.33-.05.49-.07,1-.14,2-.25,3-.31.57-.04,1.19-.08,1.63-.46.17-.15.31-.34.44-.53.95-1.36,1.88-2.74,2.64-4.23.12-.18.22-.36.28-.57,0,0,0,0,0,0,0,0,0,0,0,0,.03-.11.05-.23.05-.34,0-.3-.14-.59-.27-.86-.28-.56-.58-1.1-.89-1.64-1.45-2.52-3-4.99-4.63-7.39-.1-.15-.21-.31-.31-.47-.1-.24-.15-.5-.16-.75.44-.91.77-1.87,1.08-2.83.56-1.73,1.03-3.48,1.43-5.26.03-.15.07-.29.11-.44.09-.23.2-.44.36-.62.01-.01.02-.02.03-.03.41-.25.89-.36,1.36-.47,3.09-.72,6.16-1.55,9.2-2.49.19-.06.37-.12.54-.22.14-.06.27-.14.36-.26.08-.11.12-.25.16-.39.06-.23.09-.47.12-.71.13-1.02.26-2.05.37-3.07-.12,0-.24,0-.36.02ZM111.41,47.54c-.12.2-.24.4-.35.61-.24-.02-.49-.03-.73-.05.37-.19.74-.4,1.1-.6,0,.01-.02.02-.02.04ZM112.14,46.37c-.08.05-.17.1-.25.16-.83.55-1.69,1.05-2.57,1.51-.44-.04-.88-.09-1.32-.16.08-.05.15-.11.23-.17.23-.17.48-.31.72-.45,1.39-.79,2.77-1.58,4.16-2.36-.33.49-.66.98-.97,1.47ZM117.48,38.25c-.34.18-.68.36-1.01.54-.18.1-.36.19-.54.29-.66.09-1.32.21-1.96.36,1.08-.63,2.16-1.23,3.27-1.8.08.2.16.41.25.61ZM114.03,40.24c-.24.16-.48.31-.72.46-.29.18-.6.34-.9.5.24-.24.49-.48.74-.71.29-.09.59-.18.88-.25ZM117.02,37.15c-1.37.68-2.69,1.46-3.96,2.32-.1-.28-.21-.56-.31-.84,1.28-.84,2.58-1.66,3.9-2.44.12.32.25.64.37.96ZM115.33,24.83c-.57.49-1.15.98-1.68,1.51,0,0,0,0,0,0-.29.05-.59.1-.88.14.95-.63,1.89-1.26,2.84-1.9-.09.08-.18.15-.27.23ZM113.18,23.78c.29-.23.59-.46.93-.6.26-.11.55-.16.83-.2,0,0,0,0,.01,0-.76.37-1.51.76-2.25,1.17.16-.12.32-.25.48-.37ZM116.23,22.81c.39-.04.77-.07,1.16-.09-2.07,1.27-4.08,2.63-6.08,4.01-.58.1-1.16.19-1.74.29,0,0-.01,0-.02,0,2.27-1.33,4.5-2.73,6.68-4.21ZM109.22,27.96c-.03-.11-.07-.22-.1-.33.36-.04.73-.09,1.09-.13-.31.22-.62.43-.94.65-.02-.06-.04-.13-.06-.19ZM109.45,28.7c.68-.46,1.36-.91,2.05-1.37.65-.08,1.3-.16,1.95-.24-1.28.75-2.53,1.54-3.76,2.36-.08-.25-.16-.5-.24-.76ZM109.82,29.87c1.24-.78,2.51-1.51,3.8-2.2.02.08.05.15.07.23.07.2.14.4.21.61-1.28.73-2.54,1.5-3.78,2.31-.1-.31-.2-.63-.3-.94ZM110.27,31.29c.29-.13.55-.31.82-.48.97-.63,2-1.17,2.99-1.77.09.27.19.54.28.81-1.3.71-2.58,1.48-3.81,2.31-.09-.29-.19-.58-.28-.86ZM110.96,33.4c-.09-.27-.18-.55-.27-.82,1.16-.66,2.31-1.32,3.47-1.97.13-.07.26-.15.38-.23.08.24.17.48.25.72-1.32.68-2.5,1.61-3.82,2.3,0,0-.01,0-.02,0ZM111.12,33.89c.14-.05.27-.13.4-.2.32-.19.63-.39.95-.59.83-.52,1.66-1.04,2.49-1.56.08.22.15.44.23.66-1.28.78-2.57,1.55-3.84,2.35-.07-.22-.15-.44-.22-.66ZM111.46,34.92c1.17-.72,2.36-1.4,3.56-2.05.11-.06.22-.12.32-.2.06.18.13.36.19.53-1.07.74-2.21,1.39-3.3,2.09-.18.11-.36.23-.52.36-.08-.24-.16-.49-.25-.73ZM112.16,36.96c-.11-.31-.21-.61-.32-.92.77-.45,1.55-.9,2.32-1.35.48-.28.96-.56,1.42-.87.05-.03.1-.07.14-.12.11.31.22.62.34.93-.11.06-.22.12-.33.18-1.22.56-2.36,1.32-3.48,2.08-.03.02-.06.04-.09.07ZM112.31,37.38c.55-.33,1.1-.65,1.65-.98.76-.43,1.52-.87,2.27-1.32.08.22.17.45.25.67-.06.04-.12.08-.18.11-1.25.75-2.48,1.53-3.71,2.32-.1-.27-.19-.54-.29-.81ZM110.58,43.33c.21-.26.41-.52.62-.78,1.59-.89,3.18-1.77,4.78-2.66.28-.03.57-.06.85-.07.14,0,.28-.02.42-.04-.41.4-.8.82-1.18,1.26,0,0-.01.01-.02.02-.78.31-1.52.73-2.26,1.15-1.4.8-2.8,1.6-4.2,2.4.32-.43.65-.86.99-1.28ZM109.07,45.34c.41-.25.83-.47,1.25-.7,1.45-.77,2.91-1.55,4.36-2.32.2-.1.39-.21.58-.33-.42.51-.81,1.03-1.2,1.56-.99.52-1.91,1.19-2.88,1.76-1.05.62-2.17,1.13-3.18,1.81.31-.62.67-1.21,1.07-1.79ZM107.9,102.96c-.61.49-1.41.63-2.18.74-.26.04-.53.08-.79.12.87-.52,1.74-1.03,2.61-1.55.11.23.24.46.36.69ZM107.27,101.72c-1.16.74-2.33,1.49-3.49,2.23-.12,0-.24.02-.36.02-.06-.14-.11-.27-.17-.41,1.23-.86,2.49-1.67,3.78-2.43.08.2.16.39.25.58ZM106.83,100.67c-1.26.82-2.51,1.65-3.77,2.47-.09-.21-.18-.42-.27-.62.16-.13.35-.24.52-.35,1.11-.67,2.22-1.35,3.33-2.02.06.18.13.35.19.53ZM101.89,92.35c.45.11.91.22,1.36.33-.53.07-1.07.1-1.6.12-.08,0-.16,0-.24.01.16-.16.32-.31.48-.47ZM97.54,78.17c.13-.08.25-.16.38-.23.77-.47,1.53-.94,2.31-1.39.36-.05.72-.1,1.08-.15-1.26.57-2.52,1.16-3.77,1.77ZM102.63,75.55c-.28.04-.55.08-.83.12.36-.19.72-.37,1.08-.54,0,.13,0,.26.02.39-.09.01-.18.02-.27.04ZM102.93,74.14c0,.07-.01.14-.02.21-.49.29-.97.59-1.45.9-.34.21-.67.41-1.01.62-.57.08-1.15.17-1.72.25.95-.62,1.91-1.21,2.88-1.78.46-.27.93-.53,1.38-.83-.02.21-.04.42-.06.64ZM103.71,63.49c.13.12.25.24.37.36-.27,0-.53,0-.8,0,.01,0,.02-.02.03-.02.14-.11.27-.22.39-.34ZM102.29,64.55c.48.03.96.04,1.44.05-1.42.82-2.83,1.66-4.24,2.52.06-.28.12-.56.19-.84.82-.65,1.73-1.16,2.61-1.73ZM99.86,65.5c.05-.26.09-.53.09-.8.4-.03.8-.06,1.2-.1-.43.3-.86.59-1.29.89ZM103.3,63.11c-.36.25-.72.5-1.08.75-.5,0-.99.02-1.49.04.67-.43,1.32-.87,1.96-1.34.2.18.41.37.61.55ZM102.31,62.22c-.9.52-1.77,1.08-2.62,1.67-.04-.05-.08-.1-.12-.15-.07-.08-.14-.15-.22-.22.83-.59,1.68-1.15,2.54-1.69.14.13.28.26.43.38ZM92.96,49.63c.1-.19.2-.37.34-.53.09,0,.17,0,.26-.01.19-.02.37-.03.56-.05-.42.27-.85.54-1.27.81.04-.07.07-.15.11-.22ZM92.29,51.04c1.03-.7,2.06-1.41,3.09-2.11.47-.04.95-.08,1.42-.12-1.72,1.21-3.43,2.43-5.15,3.64.21-.47.42-.94.63-1.41ZM91.05,53.83c.06-.13.12-.27.17-.4,1.86-1.19,3.71-2.37,5.57-3.56-.12.26-.24.53-.35.8-1.87,1.17-3.73,2.37-5.57,3.59.06-.15.12-.29.18-.43ZM90.67,55.05s0-.08,0-.12c1.35-.81,2.71-1.63,4.06-2.44.45-.27.9-.54,1.33-.84-.02.05-.04.09-.05.14-.17.45-.34.91-.52,1.36-.91.57-1.82,1.14-2.71,1.73-.64.05-1.28.1-1.92.15-.07,0-.13.01-.2.02ZM95.13,54.13c-.03.08-.06.17-.09.25-.04.11-.08.22-.1.34-.32.02-.64.05-.97.07.4-.21.79-.42,1.16-.66ZM91.09,55.58c.24-.02.49-.04.73-.05-.16.11-.32.21-.47.31-.09-.09-.17-.17-.26-.26ZM91.88,56.37c-.07-.07-.15-.15-.22-.22.34-.26.69-.48,1.06-.69.57-.05,1.13-.1,1.69-.15-.71.5-1.4,1.02-2.14,1.46-.13-.13-.26-.26-.4-.4ZM92.67,57.16c.34-.32.74-.58,1.14-.83.47-.3.94-.59,1.41-.89.15.2.3.4.47.58-.76.63-1.56,1.22-2.38,1.77-.21-.21-.43-.42-.64-.63ZM93.61,58.09c.81-.57,1.61-1.14,2.42-1.71.07.07.14.15.22.22.08.08.16.16.25.24l-1.89,1.31c-.19.13-.37.26-.58.35-.14-.14-.28-.28-.42-.42ZM94.44,58.89s-.02-.02-.03-.03c.81-.57,1.64-1.12,2.48-1.63.21.2.41.4.62.6-.83.53-1.65,1.07-2.46,1.62-.2-.18-.4-.37-.6-.55ZM96.02,60.33c-.2-.19-.41-.37-.61-.56.78-.6,1.63-1.09,2.48-1.58.24.23.48.45.72.68-.86.47-1.72.96-2.54,1.52-.02-.02-.04-.04-.06-.05ZM96.41,60.69c.8-.58,1.69-1.04,2.57-1.48.2.18.4.37.6.55-.81.53-1.62,1.07-2.42,1.63-.25-.23-.5-.46-.75-.69ZM97.51,61.7c.8-.57,1.63-1.09,2.48-1.57.2.18.4.36.6.54-.84.52-1.67,1.05-2.51,1.57-.19-.18-.38-.36-.57-.54ZM98.97,63.13c-.17-.17-.33-.34-.5-.51.77-.63,1.68-1.06,2.51-1.61.18.16.36.32.54.48-.85.54-1.69,1.09-2.54,1.63ZM99.34,67.85c.98-.72,1.99-1.41,3.06-1.99.68-.37,1.39-.69,2.06-1.08-.08.29-.16.57-.23.86-1.71,1.05-3.36,2.24-5.09,3.25.06-.35.13-.7.2-1.05ZM99.03,69.5c1.58-1.2,3.32-2.15,5.04-3.13-.09.42-.17.84-.25,1.26-.97.58-1.94,1.15-2.9,1.73-.69.41-1.39.83-2.07,1.27.06-.38.12-.75.18-1.12ZM98.74,71.34c1.59-1.1,3.24-2.13,4.96-3-.07.42-.13.84-.19,1.26-1.6,1.08-3.32,1.94-4.93,3,.05-.42.1-.84.16-1.26ZM98.5,73.29c1.34-.9,2.71-1.76,4.11-2.55.27-.15.54-.3.8-.47-.04.29-.08.57-.12.86-.01.09-.02.18-.04.27-1.62,1.01-3.24,2.02-4.87,3.03.03-.38.07-.76.11-1.13ZM98.29,75.79c.01-.24.03-.48.05-.71.04-.03.08-.06.12-.1.58-.47,1.23-.83,1.88-1.19.94-.52,1.87-1.04,2.81-1.56-.03.23-.06.46-.09.69-1.62.92-3.21,1.9-4.77,2.92,0-.01,0-.03,0-.04ZM94.92,78.62c.89-.44,1.76-.92,2.58-1.49.07-.05.14-.1.21-.15.45-.11.91-.19,1.37-.27-2.91,1.76-5.83,3.51-8.75,5.24-.51.1-1.03.18-1.54.25,1.64-1.06,3.32-2.06,5.04-2.97.37-.2.75-.4,1.11-.61ZM90.97,89c-.35.03-.71.06-1.06.09.33-.2.65-.41.96-.64.02.13.04.26.07.39,0,.04.02.09.03.13,0,.01,0,.02,0,.03ZM89.67,81c-.06.04-.13.08-.19.12-.6.39-1.19.79-1.77,1.21-.18.02-.37.04-.55.05.8-.52,1.65-.97,2.51-1.38ZM85.94,83.24s.03-.02.04-.03c.19,0,.37-.01.56-.03-.22.16-.44.33-.67.5,0-.15.02-.3.07-.44ZM85.88,84.19c.52-.38,1.06-.75,1.59-1.12.45-.07.91-.15,1.36-.24-.98.57-1.95,1.15-2.93,1.72,0-.12-.01-.24-.02-.36ZM85.96,85.27s0-.01,0-.02c1.49-.91,2.97-1.82,4.46-2.73.06-.01.13-.02.19-.03,0,.05,0,.09.01.14.02.19.03.38.04.57-1.54,1.01-3.08,2.02-4.62,3.03-.03-.32-.06-.64-.08-.96ZM86.2,87.78c-.04-.31-.07-.62-.1-.92,1.43-1.11,3.06-1.92,4.58-2.88,0,.29,0,.59,0,.88-1.42,1.1-3.02,1.92-4.49,2.93ZM86.39,89.16s-.01-.06-.02-.09c-.04-.24-.07-.48-.1-.72,1.42-1,2.88-1.94,4.37-2.81.02-.01.04-.02.06-.04,0,.12,0,.24,0,.37,0,.15,0,.3,0,.44-1.06.68-2.11,1.37-3.17,2.05-.39.25-.78.51-1.15.78ZM90.73,86.97c.01.29.03.58.06.87-.67.43-1.32.87-1.96,1.34-.59.05-1.19.1-1.78.15,1.23-.79,2.46-1.57,3.69-2.36ZM88.19,89.97s.05,0,.08,0c.75-.09,1.5-.19,2.26-.28-.33.21-.66.44-.98.67-.45-.12-.9-.25-1.35-.37ZM90.09,90.49c.43-.34.91-.62,1.37-.92.04.02.09.04.13.05.17.05.34.1.5.15-.44.32-.89.62-1.35.9-.22-.06-.44-.12-.66-.18ZM91.46,90.87c.42-.31.83-.61,1.25-.92.43.12.86.25,1.28.36-.38.31-.75.63-1.12.95-.47-.13-.94-.26-1.42-.39ZM93.4,91.4c.38-.33.77-.64,1.17-.93.36.1.72.19,1.08.29l-1.37.88c-.29-.08-.59-.16-.88-.24ZM94.85,91.81c.46-.31.94-.6,1.42-.87.42.11.83.22,1.25.33-.45.3-.89.6-1.33.92-.45-.12-.89-.25-1.34-.37ZM97.84,92.63c-.33-.09-.66-.18-.99-.27.42-.35.86-.66,1.32-.94.33.08.67.17,1,.25-.45.31-.9.63-1.34.95ZM98.97,92.95s-.06-.02-.08-.03c-.13-.03-.25-.07-.38-.1.45-.33.91-.65,1.38-.96.43.11.87.21,1.3.32-.3.23-.59.46-.89.7-.44.02-.89.05-1.33.07ZM99.68,93.83c-.02-.1-.04-.2-.07-.29.62-.02,1.24-.03,1.86-.07-.54.37-1.07.75-1.59,1.15-.07-.26-.14-.52-.2-.79ZM100.18,95.58c-.04-.13-.08-.26-.12-.39,0-.02-.01-.03-.02-.05.82-.65,1.7-1.21,2.59-1.76.49-.05.97-.11,1.45-.2.02,0,.04,0,.05-.01-1.29.9-2.58,1.81-3.84,2.77-.04-.12-.08-.24-.12-.35ZM100.44,96.42c1.3-1.08,2.82-1.86,4.19-2.85.07.25.14.5.22.74-.3.21-.62.41-.93.6-1.11.68-2.19,1.41-3.25,2.19-.07-.23-.15-.45-.22-.68ZM100.81,97.54c1.11-.82,2.27-1.57,3.46-2.24.25-.14.5-.28.72-.45.1.33.19.66.29.99-1.39.86-2.78,1.72-4.17,2.58-.1-.29-.2-.58-.3-.87ZM101.29,98.92c1.29-.99,2.78-1.67,4.16-2.51.06.21.13.42.19.63-1.35.89-2.71,1.75-4.09,2.58-.09-.23-.18-.47-.27-.71ZM102.07,100.89c-.12-.29-.24-.58-.36-.87l2.2-1.34c.63-.38,1.25-.76,1.88-1.15.03.1.06.2.09.3.06.19.12.39.18.58-1.33.83-2.66,1.65-3.99,2.48ZM102.27,101.35c1.25-.92,2.62-1.65,3.95-2.44.07.23.15.46.23.7-1.29.81-2.59,1.62-3.88,2.42-.1-.23-.2-.45-.3-.68ZM103.17,105.1c.8-.37,1.66-.6,2.52-.82-1.16.76-2.33,1.52-3.49,2.27.32-.48.65-.97.97-1.46ZM101.51,107.57c1.69-1.13,3.39-2.23,5.12-3.29.17-.1.33-.21.49-.33.16-.03.32-.06.48-.08.04,0,.09,0,.13,0-.08.13-.17.25-.26.37-.2.26-.39.52-.58.77-2.19,1.24-4.32,2.58-6.38,4.04.34-.5.67-1,1.01-1.49ZM99.84,110.02c1.22-.85,2.47-1.65,3.77-2.38.77-.43,1.55-.84,2.31-1.29-.36.5-.71,1-1.06,1.5-2.08,1.19-4.12,2.44-6.12,3.76.37-.53.74-1.06,1.11-1.59ZM97.47,113.37c.24-.32.46-.65.7-.98,1.88-1.15,3.77-2.32,5.74-3.29.03-.02.07-.03.1-.05-.33.47-.65.94-.98,1.41-2.03,1.24-4.07,2.46-6.12,3.68.18-.26.37-.52.55-.77ZM96.15,115.38c.05-.09.1-.17.15-.26,2-1.1,3.89-2.41,5.91-3.47-.23.33-.45.65-.68.98-.16.24-.33.47-.49.71-1.16.58-2.26,1.3-3.34,2.03-.55.07-1.09.13-1.64.2.03-.07.06-.13.09-.19ZM100.52,114.12c-.17.26-.33.52-.48.78-.28.13-.6.21-.91.27-.1.02-.2.03-.31.05.57-.37,1.13-.73,1.7-1.1ZM95.83,116.29c.28-.08.55-.15.83-.22-.25.17-.51.34-.77.51-.03-.1-.05-.19-.06-.29ZM96.29,117.55c-.08-.17-.16-.33-.23-.5.4-.3.81-.56,1.23-.83.2-.13.4-.26.6-.39.4-.07.8-.13,1.2-.17.23-.03.47-.05.7.02.06.02.12.04.17.07,0,0,0,.01,0,.02-.71.44-1.41.89-2.12,1.33-.45.29-.91.57-1.34.89-.07-.14-.15-.28-.22-.43ZM96.71,118.39c1.07-.85,2.33-1.4,3.47-2.14.1.19.2.38.31.56-1.14.76-2.28,1.52-3.42,2.28-.13-.23-.25-.46-.37-.7ZM97.68,120.12c-.14-.23-.27-.46-.4-.69.25-.21.54-.37.82-.53.91-.52,1.82-1.04,2.73-1.56.12.2.24.4.36.59-1.2.68-2.39,1.37-3.51,2.18ZM98.61,120.91c-.14,0-.29-.02-.41-.09-.12-.07-.21-.19-.29-.31.96-.66,1.97-1.25,2.97-1.84.19-.11.37-.22.56-.33.18.28.37.56.55.84-.93.61-1.87,1.2-2.84,1.75-.18,0-.37-.01-.55-.02ZM101.68,120.96c-.51.01-1.02.01-1.53,0,.74-.42,1.47-.85,2.19-1.29.14.2.28.4.42.6-.36.23-.72.46-1.08.69ZM103.1,120.9c-.15,0-.3.01-.45.02.12-.1.24-.2.36-.3.05.06.09.13.14.19.02.03.04.06.07.09-.04,0-.08,0-.12,0ZM124.36,127.9c-1.5,1.08-3.21,1.84-4.72,2.9.07-.42.15-.84.22-1.26,1.55-1.03,3.1-2.05,4.65-3.08-.04.48-.09.96-.15,1.44ZM124.59,125.21c0,.1,0,.2,0,.29,0,.03,0,.06,0,.08-1.25.99-2.56,1.89-3.88,2.79-.24.17-.49.33-.73.5.06-.35.12-.7.18-1.04.57-.24,1.12-.55,1.66-.87.88-.51,1.76-1.03,2.53-1.69.09-.02.17-.04.26-.06ZM120.24,127.28c.06-.36.12-.73.18-1.09.6-.14,1.19-.28,1.79-.42.2-.05.4-.09.6-.14-.43.32-.86.62-1.31.89-.42.25-.86.47-1.26.76ZM124.27,124.53c-.53.16-1.06.3-1.6.42.39-.27.77-.53,1.16-.8.15.13.3.25.45.38ZM122.89,123.44s.05-.03.07-.04c.18.16.36.32.54.48-.67.44-1.34.88-2.01,1.33-.33.07-.67.13-1,.18,0-.04-.02-.08-.03-.12-.01-.04-.03-.07-.06-.1-.01-.04-.03-.08-.06-.12.03-.02.05-.04.08-.05.16-.11.32-.21.47-.31.19-.13.39-.26.59-.39.2-.13.39-.26.6-.37.18-.1.35-.2.53-.3.09-.05.19-.11.28-.17ZM113.99,119.72c.44-.3.88-.61,1.32-.91.66-.15,1.31-.33,1.96-.51.18-.02.35-.02.52.05-1.01.71-2.01,1.43-3.02,2.14-.26-.25-.52-.51-.77-.77ZM115.17,120.87c1.01-.74,2.05-1.42,3.12-2.05.16.17.33.34.49.51-1.08.61-2.15,1.25-3.19,1.93-.14-.13-.28-.26-.42-.39ZM116.12,121.72c.98-.71,1.99-1.38,3.02-2.02.19.2.38.39.58.59-1.05.56-2.07,1.2-3.03,1.91-.19-.16-.38-.32-.57-.48ZM117.17,122.59c1-.62,2-1.23,3-1.85.18.18.36.36.54.54-1.04.5-2.03,1.08-2.97,1.75-.19-.15-.38-.29-.57-.44ZM118.99,123.95c-.26-.18-.51-.36-.76-.54.89-.69,1.85-1.28,2.86-1.75.18.18.36.35.54.52-.84.65-1.73,1.25-2.65,1.77ZM119.35,124.2c.45-.33.94-.61,1.42-.89.33-.19.67-.38,1-.57.1-.05.19-.11.29-.16.17.15.33.31.5.46-.05.04-.1.07-.15.1-.1.06-.19.13-.29.19-.18.11-.38.21-.56.32-.22.13-.43.27-.66.4-.2.12-.41.23-.62.34-.13.07-.25.15-.38.22-.18-.14-.37-.28-.56-.42ZM119.52,131.49c1.57-1.03,3.27-1.84,4.77-2.97-.04.28-.07.55-.11.82-1.44,1.13-2.99,2.09-4.56,3-.09.05-.18.11-.27.17.06-.34.11-.68.17-1.01ZM119.24,133.11c1.61-1,3.22-2,4.82-3.01-.05.37-.11.73-.17,1.1-1.53,1.12-3.25,1.95-4.83,2.99.06-.36.12-.72.18-1.08ZM118.95,134.92c1.61-.99,3.22-1.99,4.83-2.98-.04.27-.08.53-.12.8-1.51,1.11-3.26,1.84-4.82,2.89.03-.23.07-.47.1-.7ZM118.78,136.08c.43-.28.87-.54,1.33-.79.44-.24.89-.46,1.33-.71.31-.18.61-.36.91-.55.41-.26.83-.52,1.24-.78-.04.27-.08.54-.11.82-1.11.73-2.24,1.44-3.39,2.11-.48.28-.97.56-1.44.87.04-.32.09-.64.13-.97ZM118.51,138.02c.01-.09.03-.19.04-.28,1.61-.96,3.22-1.92,4.83-2.88-.03.21-.05.41-.07.62-1.28,1.19-2.76,2.15-4.22,3.1-.2.13-.39.26-.58.4-.07-.31-.03-.64,0-.96ZM119.73,138.67c1.21-.72,2.37-1.51,3.49-2.37-.03.36-.06.71-.08,1.07-.05.04-.1.07-.15.11-.86.67-1.81,1.19-2.75,1.74-.51.03-1.01.05-1.52.06.32-.22.67-.41,1-.61ZM123.11,138.94c-.58.08-1.16.15-1.74.2.58-.36,1.15-.76,1.74-1.1,0,.21-.01.43-.02.64,0,.08,0,.17,0,.26ZM119.56,140.18c.14-.09.28-.18.42-.26.65-.06,1.3-.13,1.95-.19-.48.34-.94.72-1.37,1.12-.33-.22-.67-.45-1-.67ZM120.96,141.12c.69-.48,1.37-.98,2.04-1.5.12-.01.24-.02.35-.03.02.01.04.02.05.04,0,0,.01.01.02.02.16.12.34.22.52.31-.3.27-.65.47-.99.67-.49.29-.97.57-1.46.86-.18-.12-.36-.24-.54-.36ZM123.28,142.5c-.42-.21-.83-.43-1.23-.66.84-.52,1.67-1.05,2.49-1.59l.05.03c.28.15.56.31.84.46-.66.65-1.41,1.2-2.15,1.77ZM125.15,142.73c-.23.02-.46.03-.68.04-.18-.02-.36-.05-.53-.08.73-.5,1.42-1.05,2.08-1.64.3.16.61.32.92.48-.56.45-1.16.84-1.77,1.21ZM126.55,142.57c.34-.24.68-.48,1.02-.72.25.12.5.25.75.37-.58.15-1.17.26-1.77.35ZM138.55,133.94c.07-.07.13-.13.2-.2.27-.27.55-.55.84-.8.33.16.66.31.99.45-.4.24-.79.47-1.19.71-.28-.06-.56-.12-.85-.16ZM140.32,134.32c.36-.2.73-.4,1.09-.61.24.09.48.16.73.24-.3.19-.6.39-.91.58-.3-.07-.61-.14-.91-.21ZM142.76,134.85c-.29-.05-.57-.11-.86-.17.3-.18.6-.36.91-.53.26.07.52.14.78.2-.29.15-.57.32-.84.51ZM146.54,134.92c.31.05.62.1.94.15-.08.06-.17.11-.25.17-.36.02-.72.02-1.08.01.13-.11.26-.22.39-.33ZM143.65,135.01l.77-.48c.41.09.82.16,1.24.24-.18.14-.35.28-.53.42-.49-.04-.98-.11-1.47-.18ZM144.82,136.45s0-.04,0-.06c.02-.16.06-.33.16-.46.02-.03.04-.05.07-.07.2-.04.41-.04.61-.05.25,0,.49-.01.74-.02-.49.33-.97.67-1.45,1.01-.04-.12-.09-.24-.14-.36ZM145.41,138.17c-.08-.27-.17-.55-.26-.82.19-.09.36-.21.54-.33.66-.45,1.33-.88,2.01-1.3.5-.04.99-.08,1.49-.14,0,0,0,0,0,0-1.25.85-2.5,1.7-3.75,2.56-.01,0-.02.02-.03.02ZM145.78,139.36c-.07-.21-.14-.43-.21-.64,1.22-.84,2.48-1.64,3.76-2.37.02-.01.05-.03.07-.05.08.25.16.5.24.76-1.31.71-2.59,1.48-3.84,2.3,0,0-.01,0-.02.01ZM145.98,139.98c1.09-.73,2.21-1.42,3.35-2.07.17-.1.33-.19.5-.29.05.16.1.33.16.49-1.29.78-2.57,1.57-3.86,2.36-.05-.16-.1-.32-.15-.48ZM146.3,141.05c1.25-.84,2.62-1.48,3.89-2.28.06.19.12.38.18.57-.9.51-1.81,1.03-2.71,1.54-.4.23-.81.46-1.2.72-.06-.18-.11-.36-.17-.55ZM146.67,142.24c1.2-.77,2.42-1.5,3.67-2.2.08-.04.15-.09.22-.15.07.23.15.47.22.7-1.32.72-2.62,1.47-3.92,2.23-.06-.2-.13-.39-.19-.59ZM147.35,144.25c-.04-.12-.09-.24-.13-.35-.07-.2-.14-.39-.21-.59,1.07-.64,2.16-1.23,3.27-1.76.23-.11.46-.22.67-.37.08.26.17.53.25.79-1.29.76-2.57,1.52-3.86,2.28ZM147.51,144.69c1.29-.72,2.58-1.45,3.86-2.19.07.22.14.44.21.66-1.28.73-2.56,1.46-3.84,2.19-.08-.22-.15-.44-.23-.65ZM148.14,146.67s-.02-.06-.03-.09c-.06-.26-.13-.51-.21-.77,1.18-.72,2.39-1.39,3.62-2.03.08-.04.16-.09.22-.16.09.29.19.59.28.88-1.32.66-2.61,1.38-3.87,2.16ZM148.88,148.03s0,0,0,0c-.07-.07-.14-.14-.19-.22-.13-.18-.23-.38-.32-.59,1.05-.55,2.1-1.1,3.15-1.66.24-.13.48-.25.71-.4.09.28.18.56.27.85-1.22.64-2.43,1.31-3.61,2.02ZM152.29,148.08c-.81.03-1.63.05-2.44.08.92-.46,1.82-.97,2.7-1.53.04-.03.08-.06.11-.09.12.37.23.73.35,1.1-.24.15-.48.29-.72.44ZM171.4,133.68c1.27-.36,2.5-.83,3.69-1.41.04.04.08.08.11.11-1,.68-2,1.37-3,2.05-.27-.25-.54-.5-.81-.76ZM172.7,134.9c.07-.07.16-.13.24-.19.9-.63,1.89-1.13,2.69-1.89.22.22.44.44.65.66.04.04.08.08.12.12-1.06.61-2.18,1.09-3.18,1.79-.18-.17-.36-.33-.53-.5ZM174.1,136.22c-.14-.14-.29-.27-.43-.41.79-.45,1.58-.9,2.37-1.35.26-.15.51-.29.75-.47l.42.42c-.97.54-1.94,1.07-2.88,1.66-.07.05-.15.09-.22.14ZM175.1,137.16l-.5-.47c.99-.57,1.97-1.17,2.93-1.8.03-.02.06-.04.08-.06.17.17.34.34.51.52-1.03.56-2.05,1.16-3.03,1.81ZM175.55,137.57c1.02-.57,2.03-1.17,3.01-1.8.2.2.39.4.59.59-1.04.52-2.08,1.06-3.01,1.76-.2-.18-.39-.37-.59-.55ZM176.59,138.56c1-.58,1.99-1.17,2.99-1.75.18.18.35.35.53.53-.01,0-.02.01-.04.02-.98.59-2.08.98-3.01,1.64-.16-.15-.31-.29-.47-.44ZM177.6,139.47c.96-.57,1.91-1.16,2.85-1.78.23.23.46.46.69.7-.96.57-1.89,1.17-2.81,1.8-.26-.22-.5-.47-.73-.72ZM179.77,140.55c-.08,0-.16,0-.24,0-.22,0-.45,0-.66-.04.09-.07.19-.14.29-.2.8-.52,1.62-1.01,2.45-1.47.13.13.25.25.38.38-.32.18-.64.37-.95.55-.43.25-.85.49-1.26.77ZM182.85,140.27c-.39.1-.79.14-1.19.17-.18.01-.37.02-.55.04.44-.26.89-.52,1.33-.78.18.18.35.35.53.53-.04.01-.08.03-.13.04ZM195.24,118.29c-.07-.02-.15-.03-.22-.05.03-.05.07-.11.1-.16.2-.35.42-.74.8-.88.32-.12.66-.02.98.07.11.03.23.06.34.1-.5.35-1,.69-1.51,1.04-.16-.04-.33-.08-.49-.12ZM196.49,118.58c.51-.33,1.02-.66,1.53-1,.44.12.87.25,1.31.37-.43.33-.86.66-1.3,1-.52-.12-1.03-.24-1.55-.37ZM198.57,119.07c.44-.32.87-.64,1.3-.97.52.14,1.03.28,1.55.41-.08.05-.16.11-.25.16-.38.26-.77.5-1.16.74-.48-.11-.96-.23-1.44-.34ZM203.24,119.15c-.21.17-.45.32-.68.46-.04.03-.08.05-.13.08-.27.02-.54.04-.81.02-.28-.02-.56-.06-.84-.12.48-.29.95-.58,1.43-.87.4.1.79.2,1.19.3-.05.04-.1.09-.16.13ZM203.56,119.57c.17-.12.34-.25.51-.37.29.07.59.14.88.2-.46.06-.93.12-1.39.17Z"/>
        <path d="M203.73,118.81s0,0,0,0c-.02,0-.04-.01-.06-.02.02,0,.04,0,.06.01Z"/>
        <path d="M188.56,64.13c-.3-.78-.64-1.57-1.09-2.26-1.02-2.1-2.25-4.1-3.66-5.94-4.67-6.19-11.32-10.77-18.67-12.7-2.7-.83-5.55-1.15-8.36-1.02-2.9.13-5.77.73-8.53,1.67-3.24.95-6.34,2.39-9.17,4.27-4,2.66-7.42,6.21-10.05,10.32-.06.09-.12.18-.17.28-1,1.6-1.89,3.28-2.63,5.03,0,0,0,0,0,0-1.43,3.23-2.46,6.63-2.98,10.14-.63,4.22-.49,8.58.49,12.73.05.35.13.69.22,1.02,1.11,4.33,2.8,8.54,5.28,12.2.24.41.5.8.78,1.18.23.33.48.65.73.96.36-.03.72-.03,1.09,0-.14-.16-.28-.32-.41-.49-.68-.88-1.31-1.8-1.9-2.74-1.42-2.26-2.65-4.66-3.53-7.2-.85-2.45-1.36-4.99-1.79-7.56-.38-3.22-.43-6.49.01-9.7.23-1.71.6-3.39,1.02-5.07,1.05-3.47,2.42-6.84,4.38-9.85.55-.85,1.15-1.67,1.76-2.48.07-.08.13-.16.2-.24,2.51-3.11,5.39-5.93,8.73-8.06.83-.53,1.68-1.01,2.55-1.47,1.82-.89,3.67-1.69,5.59-2.3,1.38-.44,2.79-.77,4.22-.96,1.95-.09,3.93.25,5.84.75,8.36,2.21,15.81,7.71,20.75,15.01,4.19,6.47,6.08,14.47,5.42,22.23-.41,4.85-1.79,9.59-3.96,13.92-2.4,3.98-5.29,7.65-8.69,10.75-3.13,2.85-6.7,5.21-10.57,6.81-.14.02-.28.04-.42.06.06.27.1.54.13.81,1.97-.31,3.93-.77,5.83-1.4,3.36-1.12,6.56-2.8,9.37-5.01.34-.24.66-.5.97-.77,5.74-4.83,10.35-11.3,12.33-18.67.5-1.74.76-3.57.95-5.38,0-.07.01-.13.02-.2.9-6.26.21-12.77-2.06-18.65ZM128.33,97.6s-.02,0-.02,0c-.04-.08-.08-.17-.12-.25.05.08.1.16.15.24ZM189.91,76.91c-1.29.7-2.57,1.44-3.82,2.22.01-.28.02-.56.02-.85,1.25-.69,2.51-1.39,3.76-2.08.01.24.03.47.03.71ZM189.84,75.47c-1.26.66-2.5,1.35-3.72,2.08,0-.24,0-.49-.01-.73,1.23-.68,2.45-1.36,3.68-2.04.02.23.04.46.05.69ZM189.71,74.02c-1.21.68-2.42,1.36-3.64,2.04-.01-.22-.02-.45-.04-.67l3.61-2.01c.03.21.05.42.07.63ZM189.56,72.76c-1.23.57-2.42,1.21-3.58,1.91-.02-.18-.04-.36-.06-.53,1.16-.7,2.34-1.36,3.55-1.97.03.2.06.4.09.6ZM189.35,71.41c-1.2.61-2.38,1.29-3.51,2.03-.03-.21-.06-.41-.09-.62,1.12-.74,2.29-1.41,3.49-2,.04.2.07.39.11.59ZM188.95,69.42c.05.24.1.48.15.72-1.15.68-2.3,1.35-3.46,2.03-.05-.28-.1-.56-.16-.84,1.15-.66,2.29-1.32,3.44-1.98,0,.03.01.06.02.08ZM188.59,67.99c.07.25.13.51.2.76-1.15.62-2.3,1.26-3.43,1.92,0,0,0,0,0,0-.06-.25-.12-.49-.18-.74,1-.68,2.03-1.31,3.13-1.79.1-.04.19-.09.28-.15ZM188.41,67.38c-.05.02-.1.04-.15.07-1.09.59-2.19,1.18-3.28,1.77-.06-.2-.11-.39-.17-.59,1.13-.65,2.26-1.3,3.39-1.95.07.23.14.46.21.69ZM159.45,43.77c-.41-.15-.82-.31-1.23-.46.6.02,1.2.06,1.8.11-.19.11-.38.23-.57.34ZM160.33,44.06c.24-.17.48-.34.72-.51.36.04.72.1,1.07.15-.3.21-.59.43-.87.66-.31-.1-.62-.21-.93-.3ZM161.93,44.6c.06-.04.12-.09.18-.13.27-.21.54-.42.82-.63.37.07.73.14,1.09.23-.46.25-.91.53-1.35.82-.25-.1-.5-.19-.75-.28ZM163.47,45.2c.49-.31.98-.61,1.47-.92.24.06.48.12.71.19-.53.32-1.05.65-1.57.99-.2-.09-.4-.18-.61-.26ZM164.69,45.74c.08-.05.17-.11.24-.17.46-.33.93-.62,1.42-.89.27.08.53.17.8.26-.58.38-1.17.76-1.75,1.14-.24-.11-.47-.23-.71-.34ZM165.98,46.36c.6-.4,1.2-.81,1.8-1.21.37.13.73.27,1.09.42-.73.36-1.44.76-2.14,1.19-.25-.14-.5-.27-.76-.4ZM167.31,47.08c.7-.46,1.42-.88,2.17-1.26.28.12.56.24.84.37-.52.29-1.03.59-1.55.88-.25.14-.5.28-.75.42-.24-.14-.47-.28-.71-.41ZM168.59,47.83c.76-.46,1.52-.93,2.29-1.39.28.14.56.28.84.42-.84.41-1.64.89-2.42,1.42-.24-.15-.47-.3-.71-.45ZM169.77,48.59c.3-.24.63-.43.97-.61.5-.28,1-.55,1.51-.83.31.17.61.34.91.51-.88.47-1.76.95-2.62,1.45-.25-.18-.5-.35-.76-.52ZM171.14,49.56c.12-.06.24-.15.35-.23.69-.5,1.42-.96,2.17-1.37.26.16.52.32.78.49-.9.51-1.8,1.03-2.69,1.57-.2-.16-.41-.31-.61-.46ZM172.23,50.39s.06-.04.09-.06c.83-.59,1.75-1.03,2.62-1.55.28.19.56.38.84.58-.98.47-1.97.96-2.86,1.59-.23-.19-.46-.38-.69-.56ZM173.46,51.4c.11-.06.21-.14.31-.21.78-.57,1.62-1.04,2.46-1.5.23.17.45.34.67.51-1,.53-2,1.06-3,1.59-.15-.13-.3-.26-.44-.39ZM174.82,52.64c-.16-.15-.32-.3-.49-.45.04-.02.08-.04.12-.07.93-.53,1.85-1.09,2.74-1.69.2.16.39.32.58.48-.97.61-1.95,1.21-2.96,1.73ZM175.28,53.09c.96-.62,1.91-1.24,2.87-1.87.22.19.45.39.67.58-.06.03-.11.06-.16.09-.95.57-1.9,1.15-2.84,1.72-.18-.18-.35-.36-.53-.53ZM176.22,54.04c.98-.67,2-1.28,3.05-1.82.16.15.32.3.47.45-1.02.61-2.03,1.24-3.02,1.91-.16-.18-.33-.36-.5-.54ZM177.05,54.95c1.02-.66,2.07-1.27,3.15-1.82.19.19.38.39.57.59-1.09.56-2.14,1.2-3.15,1.89-.19-.22-.38-.44-.57-.66ZM177.97,56.01c1.07-.63,2.15-1.25,3.23-1.84.06.07.12.14.18.21.11.12.21.24.32.37-1.1.6-2.18,1.23-3.25,1.87-.16-.2-.32-.4-.48-.6ZM179.22,57.62c-.15-.21-.31-.41-.47-.62,1.11-.57,2.2-1.2,3.26-1.89.17.21.34.42.51.64-.06.02-.12.05-.18.08-1.06.55-2.12,1.11-3.12,1.78ZM179.53,58.04c1.14-.54,2.25-1.17,3.29-1.89.11.15.23.3.34.46-1.11.61-2.21,1.24-3.3,1.9-.11-.15-.22-.31-.33-.46ZM180.13,58.89c1.1-.64,2.2-1.28,3.3-1.91.17.24.33.47.49.71-1.11.63-2.22,1.26-3.33,1.89-.15-.23-.3-.46-.46-.69ZM180.86,60.01c1.15-.56,2.3-1.15,3.42-1.76.13.2.25.4.38.6-1.18.51-2.33,1.09-3.44,1.74-.12-.19-.24-.38-.36-.57ZM181.53,61.13c1.13-.6,2.27-1.21,3.4-1.81.12.21.24.41.36.62-1.16.56-2.3,1.16-3.42,1.79-.11-.2-.23-.4-.34-.6ZM182.16,62.26c1.14-.6,2.27-1.21,3.41-1.81.12.22.24.44.35.66-1.16.55-2.31,1.15-3.43,1.78-.11-.21-.22-.43-.33-.64ZM182.78,63.47c1.15-.58,2.28-1.21,3.37-1.89.18.36.35.72.51,1.08-1.19.49-2.35,1.06-3.46,1.73-.14-.31-.28-.62-.42-.92ZM183.72,65.68c-.08-.22-.16-.43-.25-.65,0,0,0,0,0,0,1.07-.61,2.11-1.3,3.24-1.81.05-.03.11-.05.16-.08.1.23.2.46.29.69-1.16.59-2.31,1.22-3.43,1.88,0,0,0-.02-.01-.02ZM184,66.35s.01,0,.02-.01c1.12-.65,2.25-1.3,3.37-1.95.08.2.15.39.22.59-1.14.62-2.28,1.26-3.4,1.91-.07-.18-.14-.36-.21-.54ZM184.58,67.93c-.05-.14-.09-.28-.14-.42.06-.03.11-.06.17-.09,1.05-.65,2.13-1.26,3.23-1.83.05.16.11.31.16.47-1.16.58-2.3,1.2-3.41,1.87ZM167.99,111.64c-.73.27-1.47.52-2.21.73.6-.32,1.2-.66,1.78-1.03,2.96-1.66,5.92-3.32,8.87-4.98.39-.22.78-.44,1.17-.67-2.87,2.49-6.13,4.5-9.61,5.94ZM180.57,102.79c-.18.2-.36.39-.54.58-2.45,1.49-4.9,2.97-7.35,4.46-.47.28-.93.57-1.39.85.95-.78,1.86-1.6,2.74-2.46,2.46-1.46,4.91-2.91,7.37-4.37-.27.32-.54.63-.82.94ZM182.6,100.32c-2.52,1.53-5,3.12-7.46,4.75.67-.71,1.32-1.45,1.95-2.2,2.17-1.11,4.29-2.34,6.33-3.69-.27.39-.54.77-.83,1.15ZM184.29,97.87c-2.11,1.15-4.18,2.4-6.19,3.74.3-.39.59-.78.87-1.18,1.9-1.05,3.79-2.1,5.69-3.15-.12.2-.25.39-.37.59ZM185.43,95.94c-1.8,1.06-3.6,2.13-5.4,3.19.21-.31.4-.64.59-.96.05-.08.09-.17.14-.25,1.65-1.05,3.33-2.03,5.05-2.95.06-.03.12-.07.18-.1-.18.36-.37.72-.57,1.07ZM186.47,93.9c-1.73,1.03-3.47,2.06-5.2,3.09.25-.47.49-.95.72-1.43,1.77-.92,3.38-1.87,5-2.82-.17.39-.34.78-.52,1.16ZM187.41,91.73c-1.59.91-3.18,1.82-4.77,2.72-.06.03-.12.07-.18.1.13-.28.25-.57.37-.85.88-.5,1.75-1,2.63-1.5.78-.45,1.56-.9,2.31-1.4-.11.31-.24.62-.36.93ZM188.15,89.7c-1.66,1-3.31,2.03-4.94,3.07.13-.33.26-.67.38-1,.18-.03.37-.17.55-.31,1.27-.94,2.6-1.8,3.96-2.57.12-.07.24-.14.36-.22-.1.34-.21.68-.32,1.02ZM188.75,87.7c-1.65,1.02-3.26,2.08-4.85,3.2.13-.37.25-.74.36-1.11,1.57-.96,3.13-1.92,4.7-2.88-.07.27-.14.53-.21.8ZM189.27,85.51c-.03.13-.06.27-.09.4-1.57.91-3.11,1.87-4.63,2.88.09-.32.18-.64.26-.96.59-.38,1.17-.77,1.76-1.15.93-.49,1.86-1.08,2.79-1.69-.03.18-.06.35-.09.53ZM189.48,84.27c-1.53.92-3.03,1.88-4.5,2.89.07-.27.13-.54.19-.81,1.2-.86,2.44-1.65,3.73-2.35.24-.13.49-.26.68-.46-.03.24-.06.49-.1.73ZM189.66,82.89c-1.47.86-2.91,1.76-4.33,2.71.04-.21.08-.43.12-.64,1.43-.9,2.85-1.8,4.28-2.7-.02.21-.04.42-.07.64ZM189.8,81.41c-1.44.73-2.83,1.56-4.17,2.49.01-.07.02-.14.03-.2.04-.25.07-.49.11-.74l4.04-2.31s.03-.02.04-.03c-.02.26-.04.53-.06.79ZM189.89,79.86c-1.38.71-2.72,1.48-4.03,2.31.03-.25.05-.5.08-.75,1.3-.85,2.63-1.66,3.97-2.44,0,.29-.01.58-.03.87ZM185.99,80.87c.03-.34.05-.69.07-1.03,1.2-.75,2.42-1.46,3.66-2.14.07-.04.13-.07.19-.11,0,.19,0,.39,0,.58-1.35.83-2.67,1.74-3.94,2.7Z"/>
        <path d="M165.18,87.11c1.42-.16,2.83-.34,4.24-.52.92-.12,1.84-.24,2.75-.47.3-.07.6-.17.87-.31.12-.05.23-.1.35-.16,1.77-.88,3.29-2.3,4.31-4.04.93-1.58,1.44-3.41,1.49-5.26.01-.09.02-.18.03-.27.35-3.57-1.26-7.29-4.06-9.4-2.54-1.92-5.98-2.45-8.97-1.47-.82.14-1.64.32-2.45.51-1.42.34-2.84.71-4.17,1.32-1.33.61-2.57,1.48-3.46,2.68-.33.45-.62.98-.67,1.58-.33-.48-.7-.94-1.11-1.36-.93-.95-2.04-1.7-3.24-2.22-.15-.08-.3-.15-.45-.21-1.16-.48-2.42-.69-3.66-.64-1.43-.02-2.86.34-4.25.69-1.08.28-2.16.55-3.23.86-.9.26-1.81.54-2.64.99-.9.48-1.7,1.15-2.41,1.9-1.43,1.52-2.51,3.42-2.95,5.49-.41,1.91-.26,3.96.49,5.74.49,1.52,1.3,2.93,2.38,4.08,1.39,1.48,3.21,2.53,5.17,2.93.92.19,1.85.24,2.79.24,1.92.14,3.87,0,5.76-.39.73-.09,1.45-.24,2.16-.44.87-.24,1.75-.58,2.43-1.15,1.46-.93,2.66-2.32,3.45-3.91.05-.11.11-.22.16-.33,0,.01.02.03.03.04,1.75,2.21,4.45,3.65,7.21,3.61.55,0,1.1-.07,1.65-.13ZM157.65,83.61c.6-.34,1.19-.71,1.76-1.09.6-.34,1.21-.67,1.79-1.04.16.27.33.54.51.79-1.18.61-2.34,1.26-3.48,1.94-.2-.19-.4-.39-.59-.59ZM141.03,87.39c.2.16.41.3.62.44,0,0,0,0,0,0-.44.3-.87.6-1.31.9-.34-.04-.67-.1-1-.18-.1-.02-.19-.05-.29-.08.66-.36,1.32-.72,1.98-1.08ZM142.2,88.16c.47.25.96.46,1.47.61-.87.06-1.74.09-2.6.03.37-.24.74-.45,1.13-.64ZM133.72,84.16c1.21-.73,2.43-1.47,3.64-2.2,0,0,0,0,.01,0,.07.23.15.46.24.69-1.19.67-2.36,1.39-3.5,2.15-.14-.2-.27-.41-.4-.63ZM133.26,83.27s-.02-.06-.04-.09c1.29-.78,2.57-1.56,3.86-2.34.04.18.08.37.13.55-1.24.79-2.47,1.58-3.71,2.38-.09-.16-.17-.33-.24-.5ZM140.48,69.96c-.49.48-.94,1.01-1.35,1.57-1.98,1.09-3.94,2.2-5.89,3.33.14-.29.29-.58.45-.86,2.27-1.35,4.53-2.7,6.8-4.04ZM137.63,74.25s0,.02-.01.03c-.13.33-.25.68-.35,1.02-.14.09-.29.17-.43.25-1.4.79-2.73,1.72-4.05,2.64-.16.11-.31.22-.47.33,0-.35.02-.69.06-1.04,1.7-1.05,3.4-2.1,5.1-3.14.05-.03.1-.06.15-.09ZM132.56,76.74c.02-.09.04-.18.07-.26.08-.27.17-.53.27-.79,1.44-.81,2.87-1.61,4.31-2.42.42-.23.84-.47,1.26-.7-.15.25-.28.51-.41.77-1.84,1.11-3.67,2.25-5.49,3.41ZM137.08,76.19c-.07.33-.12.67-.15,1.01-1.37.83-2.72,1.68-4.06,2.56-.15.1-.31.2-.47.28-.04-.33-.06-.67-.07-1.01,1.56-1,3.14-1.95,4.75-2.84ZM132.75,80.5c1.31-.97,2.73-1.77,4.12-2.61-.02.3-.02.59-.02.89-.36.28-.74.52-1.12.76-1.03.64-2.06,1.27-3.08,1.91-.06-.25-.11-.5-.16-.75.09-.06.17-.12.26-.18ZM136.88,79.37c.02.22.04.45.07.67.01.1.03.2.05.31-1.32.78-2.64,1.56-3.97,2.35-.1-.26-.18-.52-.26-.78,1.37-.85,2.74-1.7,4.11-2.54ZM134.8,72.41c.29-.34.59-.66.93-.95,1.29-1.12,2.87-1.73,4.51-2.15-1.81,1.03-3.63,2.07-5.44,3.1ZM134.37,85.15c1.15-.66,2.3-1.35,3.43-2.06.03.07.06.14.09.2.08.16.15.32.24.48-.02,0-.03.01-.05.02-1.12.6-2.23,1.2-3.35,1.8-.12-.15-.24-.29-.36-.45ZM138.38,84.26s0,0,0,0c.14.24.28.47.43.7-.04.01-.09.03-.13.06-.98.52-1.93,1.09-2.87,1.68-.25-.21-.49-.44-.71-.68,1.09-.59,2.18-1.17,3.28-1.76ZM139.1,85.36c.18.26.38.5.59.74-.92.47-1.84.94-2.75,1.42-.25-.16-.5-.33-.73-.51.99-.5,1.96-1.05,2.9-1.65ZM140.15,86.6c.15.16.31.31.48.45-.24.12-.48.24-.72.36-.34.16-.68.32-1.02.49-.2.1-.41.2-.61.3-.29-.12-.58-.25-.86-.4.9-.42,1.81-.82,2.72-1.21ZM151.52,87.43c-1.37.75-2.94,1.12-4.5,1.22-.57.04-1.15.04-1.72-.04-1.28-.18-2.46-.78-3.54-1.54-.84-.7-1.65-1.42-2.31-2.3-.19-.25-.36-.52-.52-.79-.07-.12-.14-.24-.2-.36-.52-.99-.87-2.09-1.03-3.21-.23-1.57-.11-3.19.26-4.73,0-.01,0-.03,0-.04.11-.43.25-.86.41-1.28.24-.62.54-1.21.86-1.78.27-.38.55-.75.85-1.1.82-.95,1.77-1.78,2.85-2.37.13-.07.25-.13.38-.2,1.48-.68,3.12-.97,4.74-.84,1.02.09,2.02.34,2.96.75,1.18.63,2.22,1.54,3.06,2.6.44.56.83,1.16,1.18,1.78.15.36.3.71.43,1.08.8,2.29.8,4.81.27,7.19-.27.74-.56,1.46-.94,2.15-.84,1.54-2.06,2.85-3.51,3.79ZM164.82,67.01c.92-.56,1.93-.93,2.98-1.17,2.36-.39,4.89.25,6.8,1.75,1.24.97,2.22,2.27,2.88,3.73.63,1.73.91,3.59.82,5.44-.04.81-.15,1.62-.4,2.39-.21.65-.51,1.27-.86,1.85-.74,1.23-1.73,2.32-2.9,3.1-1.36.79-2.96,1.15-4.52,1.33-.27.03-.55.06-.82.07-1.03-.01-2.07-.2-3.01-.62-.12-.05-.23-.11-.35-.17-1.1-.62-2.09-1.47-2.86-2.5-.56-.74-1.01-1.55-1.41-2.39-.17-.41-.32-.83-.46-1.25-.01-.07-.03-.14-.04-.2-.43-2.12-.37-4.36.32-6.4.69-2.04,2.04-3.87,3.84-4.97ZM157.42,78.29c0-.3,0-.61-.01-.91.76-.47,1.54-.91,2.33-1.31.01.29.03.58.06.87-.79.45-1.59.9-2.38,1.35ZM159.73,75.46c-.78.46-1.57.91-2.36,1.35-.01-.14-.02-.29-.04-.43-.02-.17-.04-.34-.07-.51.82-.47,1.66-.93,2.5-1.35-.02.32-.04.63-.04.95ZM159.84,73.84c-.89.51-1.77,1.02-2.66,1.54-.05-.24-.11-.48-.18-.72.59-.36,1.18-.72,1.77-1.08.38-.23.76-.46,1.14-.69.04-.02.07-.04.11-.07-.07.34-.14.68-.18,1.02ZM160.2,72.12c-1.13.66-2.25,1.31-3.38,1.97-.08-.26-.18-.52-.29-.77,1.15-.77,2.35-1.45,3.59-2.04.15-.07.31-.15.46-.23-.15.35-.28.71-.39,1.08ZM157.4,78.99c.82-.48,1.64-.96,2.47-1.43.02.17.05.34.08.51.04.22.09.43.14.64-.96.49-1.91,1.02-2.82,1.6.07-.44.11-.88.14-1.32ZM166.44,85.89c.12.04.24.06.36.09-.36.06-.71.12-1.07.16.2-.1.38-.2.53-.31.06.02.12.04.17.06ZM161.12,69.99s-.02.04-.03.05c-1.63.85-3.22,1.77-4.77,2.77-.09-.19-.18-.37-.28-.55.27-.14.53-.3.79-.45.31-.18.61-.36.91-.55.38-.23.75-.48,1.13-.72.36-.22.73-.45,1.09-.68.46-.28.94-.52,1.4-.8.21-.13.44-.24.66-.36-.33.4-.64.83-.9,1.28ZM157.09,81.2c1.05-.64,2.1-1.28,3.15-1.92.08.27.17.53.28.79-1.24.69-2.47,1.4-3.69,2.13.1-.33.19-.66.27-1ZM158.64,84.51c1.07-.72,2.3-1.14,3.39-1.81.19.24.38.47.59.69-1.03.61-2.06,1.23-3.09,1.84-.33-.21-.64-.44-.94-.7.01,0,.03-.02.04-.03ZM162.41,83.99c.17-.09.35-.19.51-.3.23.23.47.44.72.65-.89.46-1.75,1-2.56,1.59-.37-.11-.73-.26-1.08-.44.78-.55,1.58-1.05,2.41-1.5ZM164,84.62c.15.11.3.22.46.32.11.07.23.14.35.21-.63.35-1.24.72-1.85,1.11-.46-.03-.91-.09-1.36-.2.8-.48,1.6-.97,2.4-1.45ZM165.13,85.33c.23.12.47.24.71.34-.31.19-.62.38-.94.56-.39.03-.77.06-1.16.06.47-.31.93-.62,1.39-.96ZM157.6,69.75c.87-.78,1.89-1.35,2.94-1.84,1.15-.54,2.33-.98,3.54-1.34-.01.01-.03.02-.04.03-.06.03-.12.06-.18.1-.29.17-.59.33-.88.5-.35.21-.69.43-1.04.64-.47.27-.92.59-1.4.82-.22.11-.44.24-.65.38-.17.12-.36.19-.54.3-.5.31-1.01.63-1.5.97-.21.14-.43.25-.65.38-.14.09-.28.18-.42.27-.13.09-.27.15-.41.22.33-.54.75-1.02,1.21-1.44ZM156.89,82.75c1.27-.75,2.54-1.5,3.82-2.25.08.19.17.38.27.56-1.22.71-2.43,1.46-3.61,2.24-.16-.18-.32-.36-.47-.54Z"/>
      </g>
    </g>
    <path class="cls-5" d="M127.08,31.72c-.36-.97-.63-1.97-.81-2.99-.04-.24-.07-.52.07-.72.33-.47,1.02-.03,1.58-.01.3,0,.58-.13.85-.26.93-.45,1.86-.9,2.79-1.34.68-.33,1.37-.67,1.89-1.23.83-.91,1.06-2.23,1.24-3.47.43-2.89.86-5.78,1.29-8.66.05-.37.12-.75.33-1.04.35-.49,1-.6,1.58-.67,2.9-.37,5.8-.67,8.71-.91.31-.03.63-.05.92.09.31.15.51.46.69.75,2.12,3.4,4.24,6.8,6.37,10.2.2.33.42.67.76.84.25.13.54.15.82.17,1.16.07,2.33.04,3.49-.07.55-.05,1.2-.08,1.52.38.13.19.17.42.21.65.2,1.17.34,2.38.07,3.54-.51,2.22-2.39,3.81-4.28,4.98-3.09,1.92-6.49,3.22-9.94,4.32-3.4,1.08-6.89,1.98-10.44,2.27-1.72.14-3.52.14-5.11-.56-1.76-.77-3.09-2.31-4.2-3.91"/>
    <path class="cls-5" d="M167.39,22.01l-.73-2.19c-.18-.55-.37-1.11-.66-1.61s-.7-.95-1.21-1.19c-.16-.07-.33-.12-.5-.08-.21.05-.36.22-.5.39-1.33,1.64-2.35,3.51-3.45,5.32-.67,1.1-1.38,2.22-1.66,3.49-.18.82-.17,1.67-.09,2.51.06.59.16,1.19.5,1.67.56.8,1.65,1.05,2.59.82s1.73-.83,2.47-1.45c1.49-1.26,2.88-2.72,3.73-4.51.2-.42.37-.88.34-1.35"/>
    <path class="cls-5" d="M193.85,63.52c.35,4.38.67,8.78,1.42,13.11.32,1.82.72,3.67,1.68,5.24,1.21,1.97,3.18,3.3,5.2,4.34,4.33,2.24,9.26,3.42,14.06,2.77.63-.09,1.27-.21,1.79-.57,1.12-.78,1.36-2.35,1.49-3.73.03-.33.06-.7-.13-.98-.13-.2-.35-.31-.56-.42-3.02-1.56-6.03-3.13-9.05-4.69-.4-.21-.82-.43-1.05-.82-.2-.33-.24-.74-.27-1.14-.21-2.67-.43-5.34-.64-8.02-.02-.31-.05-.63.06-.92.13-.35.42-.61.7-.85,2.49-2.12,4.9-4.35,7.22-6.68.35-.36.72-.74.83-1.24.09-.39,0-.8-.09-1.2-.32-1.33-.74-2.65-1.24-3.92-.08-.21-.17-.42-.33-.57-.21-.2-.5-.25-.78-.3-3.13-.5-6.32-.22-9.49-.24-1.92-.01-3.83-.14-5.73-.39-.99-.13-2.22-.17-2.71.73-.17.31-.2.68-.21,1.04-.04.97.05,1.95.25,2.9"/>
    <path class="cls-5" d="M176.61,76.69c.16-.96-.21-1.92-.64-2.78-.68-1.36-1.59-2.68-2.89-3.41-.51-.29-1.06-.48-1.63-.61-.81-.19-1.65-.28-2.46-.13s-1.61.53-2.16,1.17c-.38.44-.64,1.07-.42,1.61.17.42.58.68,1.01.81s.86.15,1.29.26c.75.19,1.46.69,1.77,1.42.44,1.03-.11,2.38-1.12,2.81s-2.29-.09-2.77-1.1-.14-2.36.74-3.01c.33-.24.76-.48.77-.89,0-.16-.06-.3-.13-.44-.18-.34-.41-.64-.69-.9-.11-.1-.23-.19-.38-.23-.28-.06-.56.13-.78.33-.95.88-1.53,2.15-1.7,3.46s.02,2.65.43,3.9c.27.83.64,1.63,1.2,2.29.52.61,1.18,1.08,1.88,1.44.74.39,1.54.68,2.37.76,1.78.17,3.59-.67,4.77-2.07s1.33-3.31,1.56-4.67Z"/>
    <path class="cls-5" d="M155.36,77.02c-.39-2.08-2.12-3.67-4.03-4.45-1.62-.66-3.52-.82-5.05.04-.48.27-.94.67-1.08,1.22-.16.63.14,1.3.56,1.77.07.08.15.16.25.21.17.08.37.04.55,0,.74-.13,1.55-.1,2.17.33.79.55,1.08,1.67.84,2.62-.09.36-.26.71-.52.97-.41.4-1.02.54-1.57.42s-1.03-.48-1.38-.94c-.33-.44-.56-.97-.58-1.53s.17-1.13.55-1.51c.25-.26.6-.45.71-.8.08-.27,0-.56-.08-.82-.09-.29-.18-.58-.35-.82s-.46-.42-.75-.38c-.21.03-.39.16-.55.31-.83.76-1.32,1.84-1.67,2.93-.55,1.7-.83,3.58-.26,5.28.39,1.17,1.18,2.18,2.15,2.89s2.13,1.14,3.32,1.3c.49.07.98.09,1.47.05,1.27-.11,2.5-.7,3.4-1.62.49-.5.89-1.1,1.22-1.74.84-1.63,1.11-3.53.7-5.73Z"/>
    <path class="cls-5" d="M163.09,118.1c.29-.97.57-2.06.12-2.96-.69-1.35-2.51-1.39-3.98-1.32-10.28.47-20.94-3.5-27.64-11.58-.59-.7-1.2-1.48-2.06-1.72-.66-.19-1.37-.04-2.03.16-1.8.52-3.54,1.34-4.95,2.6s-2.47,3-2.74,4.91c-.44,3.16,1.26,6.16,2.93,8.84,1.14,1.83,2.31,3.67,3.84,5.18,3.7,3.67,9.01,4.95,14.08,5.72,3.59.54,7.23.89,10.83.42s7.16-1.82,9.84-4.35c1.18-1.11.78-2.66,1.76-5.9Z"/>
    <g>
      <path d="M129.49,29.5c.2.11.41.2.63.25.34.07.68.01,1-.12.26-.09.5-.22.74-.35,1.04-.56,2.06-1.15,3.12-1.64.45-.21.92-.4,1.39-.6.28-.11.56-.22.84-.33.77-.3,1.54-.59,2.26-1.02.14-.08.27-.17.38-.29.18-.22.22-.52.22-.82.55-2.91.67-5.88,1.08-8.82.2-1.41.45-2.81.67-4.22,1.04-.12,2.07-.26,3.1-.46.72-.14,1.44-.29,2.16-.3.05,0,.1,0,.15.02.31.1.53.37.72.64.3.42.57.86.84,1.31,1.47,2.39,2.95,4.79,4.42,7.18.17.27.33.54.51.8.29.52.59,1.04.89,1.55.13.22.28.44.48.59.02.03.05.05.08.07.01,0,.02.02.03.03.02,0,.04,0,.05.02.03,0,.05.02.08.02.04.01.08.02.13.02.06,0,.13,0,.19,0,.5-.02,1-.12,1.5-.18,1.82-.21,3.64.08,5.46.31.74.27,1.56.27,2.3,0,.86-.31,1.59-.94,2.09-1.72.2-.31.36-.65.54-.98.39-.73.84-1.43,1.29-2.13-.18.21-.35.43-.93.76.2-.29.33-.63.39-.98-.17.01-.29.16-.4.29-.25.32-.51.63-.76.95-.69.28-1.35.61-2,.96-.4.2-.79.42-1.18.63-.64.35-1.29.71-1.93,1.06-.23-.02-.46-.03-.68-.05.18-.25.35-.51.53-.76,2.12-1,4.19-2.09,6.21-3.27-.31,0-.64-.09-1.15.08-1.48.48-2.9,1.16-4.23,2,.36-.54.71-1.09,1.06-1.64.37-.14.75-.29,1.1-.47.5-.26.96-.58,1.47-.81.27-.12.55-.21.81-.34.26-.13.52-.3.68-.55-.32.03-.63.14-.94.26-.87.32-1.72.68-2.57,1.05.49-.77.98-1.54,1.48-2.31.1-.16.21-.32.28-.5.06-.13.09-.3,0-.4-.13-.14-.36-.01-.5.12-1.03.97-1.89,2.12-2.73,3.26-.34.46-.69.93-1.03,1.39-.69.93-1.37,1.86-1.97,2.84-1.31-.02-2.62.07-3.9.31-.05-.1-.12-.2-.18-.29-2.69-3.63-4.71-7.74-7.32-11.44-.18-.25-.38-.52-.66-.62-.07-.03-.14-.04-.21-.05-.15-.05-.3-.08-.46-.09-.69-.05-1.39.02-2.08.09-2.66.27-5.32.55-7.93,1.1-.32.07-.66.15-.89.4-.03.04-.05.09-.08.13-.01.01-.03.03-.04.04-.02.03-.03.07-.05.1,0,0,0,.01,0,.02-.14.25-.23.53-.3.81-.17.69-.29,1.4-.41,2.1-.47,2.7-.94,5.41-1.41,8.11-.14.79-.3,1.63-.72,2.29-.27.12-.53.25-.79.38-1.32.67-2.65,1.36-3.88,2.2-1.29-.99-2.6-1.93-4.06-2.59l.91,1.03c-.42-.3-.89-.51-1.38-.63.12.28.35.5.58.7,1.28,1.11,2.68,2.05,4.1,2.96.28.18.57.36.86.52ZM166.47,20.19c-.23.28-.45.57-.68.85-.33.41-.67.83-1.13,1.06-.15.07-.31.12-.48.15,0,0-.02,0-.03,0-.43-.05-.87-.1-1.3-.14,1.21-.64,2.37-1.37,3.62-1.92ZM135.4,19.78c1.61-.92,3.22-1.85,4.83-2.77.01,0,.03-.02.04-.03-.04.31-.08.62-.12.93-1.63,1.01-3.27,1.98-4.93,2.93.06-.35.12-.71.17-1.06ZM135.69,18.04c1.31-.71,2.6-1.44,3.87-2.23.32-.2.63-.39.94-.59-.05.37-.09.74-.14,1.11-1.62.98-3.25,1.97-4.87,2.95.07-.41.14-.83.2-1.24ZM135.95,16.43c1.58-.92,3.16-1.84,4.74-2.76-.04.3-.08.6-.11.9-1.63.92-3.23,1.9-4.8,2.92.06-.35.12-.71.17-1.06ZM136.34,14.24c1.35-.8,2.7-1.6,4.05-2.4.09-.06.19-.11.28-.17.09,0,.18-.01.27-.02-.05.42-.11.83-.16,1.25-1.6.92-3.18,1.89-4.73,2.91.09-.52.19-1.04.29-1.56ZM136.67,12.51c.03-.15.07-.3.12-.44.03,0,.05-.02.08-.03.88-.14,1.76-.21,2.65-.28-1.03.64-2.05,1.28-3.08,1.93.08-.39.14-.79.22-1.18ZM139.36,18.92c.24-.14.48-.28.73-.42-.04.3-.07.59-.11.89-1.69.96-3.36,1.96-5.01,3,.06-.33.12-.67.18-1,1.4-.82,2.81-1.64,4.21-2.46ZM138.18,21.15c.54-.32,1.07-.64,1.61-.97.03-.02.06-.04.09-.06-.05.38-.09.75-.14,1.13-1.7,1.04-3.4,2.06-5.12,3.05.08-.42.15-.84.23-1.26,1.13-.59,2.24-1.24,3.34-1.9ZM131,28.69c-.17.03-.34.04-.5.02,1.79-.99,3.55-2.07,5.34-3.08.41,0,.83,0,1.24-.02.14,0,.29-.01.43-.02-.34.13-.67.27-1.01.42-.08.04-.16.08-.25.11-1.79.73-3.51,1.7-5.26,2.57ZM137.68,24.64c.46-.22.93-.45,1.39-.67.11-.05.22-.1.33-.15-.02.18-.04.36-.07.53-.01.11-.03.22-.05.34-.62.02-1.25.06-1.87.09.09-.05.18-.09.26-.13ZM134.59,24.91c1.73-.9,3.43-1.89,5.06-2.97-.05.42-.11.84-.16,1.26-.99.54-1.98,1.08-2.97,1.62-.64.03-1.29.06-1.93.09ZM133.42,25.94c.32-.14.63-.28.94-.43.06,0,.13.02.19.02.18.02.37.04.55.05-.22.12-.45.24-.67.37-1.1.6-2.2,1.21-3.28,1.86-.31.16-.62.32-.93.5-.11.06-.21.13-.31.21-.22-.11-.43-.25-.63-.41.2-.05.37-.15.53-.25,1.15-.73,2.35-1.37,3.6-1.91Z"/>
      <path d="M165.67,111.75c-6.04,2.02-12.67,1.97-18.73.04-6.06-1.93-11.54-5.7-15.73-10.63-1.07-1.26-2.08-2.61-3.36-3.64,2.68,4.97,6.81,9.04,11.59,11.86s10.17,4.44,15.64,5.03c3.63.39,7.5.29,10.65-1.62-.4.05-.81.11-1.21.16.5-.25.92-.68,1.16-1.2Z"/>
      <path d="M145.76,79.49c.11.11.24.21.37.29-.07.09-.1.21-.1.34-.01,1.18.51,2.35,1.38,3.11s2.08,1.08,3.2.86c.91-.18,1.75-.7,2.4-1.39.24-.25.45-.53.61-.84.22-.44.3-.94.35-1.44.03-.35.05-.7.03-1.05-.09-1.29-.78-2.54-1.84-3.22-.98-.64-2.27-.74-3.33-.27-.26-.25-.6-.4-.95-.49-.39-.09-.81-.1-1.18.04-.41.15-.73.47-1,.82-.36.46-.63,1.03-.62,1.62,0,.28.08.56.18.82.12.29.28.57.5.79ZM145.83,77.29c.16-.54.62-.97,1.14-1.14.17-.05.35-.09.53-.07.06,0,.11.02.17.04.04.02.08.03.12.05.25.11.51.25.69.47.12.15.19.34.23.53,0,.1,0,.2,0,.3-.02.32-.06.65-.21.94-.07.13-.16.25-.25.37-.2.16-.43.28-.67.35-.45.12-.97.04-1.33-.27-.42-.36-.58-1.01-.41-1.55Z"/>
      <path d="M169.64,73.31s-.05-.03-.07-.04c-.84-.36-1.87-.29-2.61.27-.73.56-1.1,1.59-.91,2.52.1.52.38.98.75,1.34,0,0,0,0,0,.01-.12.6-.05,1.23.15,1.82.1.38.25.74.48,1.05.29.39.67.71,1.09.95.95.55,2.1.72,3.16.44,1.05-.28,2-1.01,2.53-1.99.53-.98.65-2.17.48-3.28-.06-.37-.15-.74-.3-1.09-.46-1.01-1.47-1.65-2.5-1.99-.73-.24-1.54-.35-2.23-.02ZM166.75,74.93c.07-.17.15-.33.26-.48.43-.57,1.23-.8,1.88-.53.25.1.45.28.62.49.19.29.31.64.31.99,0,.51-.21,1.03-.59,1.36s-.91.47-1.4.35c-.36-.09-.67-.31-.92-.59,0,0,0,0-.01-.01-.17-.26-.29-.56-.29-.88,0-.24.05-.47.14-.69Z"/>
      <path d="M176.08,72.69c-.45-.78-1.05-1.47-1.74-2.03-.77-.62-1.65-1.1-2.6-1.34-.49-.12-.99-.17-1.49-.15-.58-.01-1.15.12-1.69.32-1.71.62-3.19,1.92-4.02,3.59-.46.94-.7,1.99-.72,3.04-.03.64.03,1.28.17,1.89.03.22.08.43.15.64.44,1.36,1.19,2.62,2.23,3.56,1.04.94,2.37,1.56,3.75,1.64.26.01.51,0,.77-.03.09,0,.17-.01.25-.02.67-.08,1.34-.23,1.95-.52.45-.22.87-.51,1.26-.82.82-.66,1.57-1.45,2.06-2.4.81-1.56.87-3.42.43-5.15-.13-.78-.38-1.54-.77-2.22ZM174.39,71.84c.83.83,1.43,1.89,1.75,3.04.03.12.05.24.08.36.05.31.11.61.14.92.03,1.49-.18,2.98-.92,4.24-1.12,1.93-3.43,3-5.58,2.7-1.54-.22-2.95-1.11-3.93-2.36-.92-1.56-1.48-3.37-1.27-5.17.2-1.71,1.1-3.33,2.45-4.35.59-.45,1.26-.77,1.96-.97.76-.14,1.54-.17,2.3-.03,1.13.22,2.19.8,3.02,1.62Z"/>
      <path d="M148.71,71.63c-1.91.16-3.69,1.27-4.8,2.89-.23.29-.45.59-.63.91-.81,1.43-1.11,3.15-.95,4.8.06.56.16,1.12.35,1.65.11.31.24.6.39.88.39.92,1,1.73,1.77,2.34.07.06.14.11.21.17.04.03.08.06.12.08.79.57,1.7.95,2.64,1.11,1.49.3,3.09.06,4.43-.69,1.3-.72,2.34-1.91,2.94-3.3.55-1.09.85-2.3.84-3.52,0-1.5-.49-2.99-1.34-4.2-1.25-2.05-3.65-3.3-5.99-3.11ZM145.48,73.82c.35-.3.73-.56,1.14-.75.17-.08.34-.14.51-.21.95-.29,1.94-.39,2.92-.25,1.34.19,2.63.84,3.56,1.85.78.85,1.29,1.93,1.54,3.07.2.94.22,1.92.1,2.88-.21,1.1-.64,2.15-1.31,3.03-1.14,1.5-2.95,2.47-4.79,2.45-1.22-.01-2.42-.44-3.43-1.14-.55-.38-1.03-.84-1.47-1.35-.83-1.21-1.3-2.69-1.28-4.18.02-2.06.97-4.09,2.51-5.4Z"/>
      <path d="M220.31,83.74s-.01-.07-.03-.1c0,0,0,0,0,0,0,0,0,0,0,0-.04-.08-.11-.16-.19-.21-.03-.02-.06-.04-.09-.06h0s0,0,0,0c-.23-.17-.47-.31-.72-.45-3.45-1.96-6.94-3.83-10.47-5.63,0-.11,0-.23,0-.34-.04-2.89-.14-5.81-.77-8.62,0-.02,0-.05,0-.07.01-.12.04-.23.09-.34.12-.14.25-.27.38-.39,2.64-2.43,5.28-4.85,7.92-7.28.21-.19.41-.4.56-.64.07-.08.14-.15.2-.24.07-.1.14-.21.16-.33.02-.11,0-.21-.02-.32-.39-1.93-1.12-3.77-1.92-5.56-.06-.13-.12-.25-.2-.37-.06-.12-.14-.23-.25-.3-.22-.14-.49-.15-.75-.15-2.87,0-5.73-.31-8.6-.21-.68.02-1.36.07-2.01-.12-.65-.19-1.27-.66-1.44-1.34-.27.86-.21,1.39-.11,1.9.03.14.06.28.15.39.04.05.09.09.14.13.02.03.04.06.07.08.09.06.21.07.32.08.6.04,1.21.03,1.82.01,3.25.07,6.49-.01,9.74.05.08.06.14.15.18.24.76,1.49,1.26,3.1,1.76,4.71.06.2.12.42.12.63-.07.23-.25.43-.42.6-2.69,2.71-5.64,5.13-8.34,7.82-.11.11-.21.21-.27.35-.07.15-.06.31-.02.46,0,.02,0,.04,0,.06.01.08.03.17.04.25.08.65.18,1.3.28,1.94.14,1.32.17,2.65.25,3.97,0,.79-.02,1.57,0,2.36,0,.07.01.14.02.2,0,.01,0,.02,0,.03,0,.22.02.45.12.64.15.31.46.49.76.64.53.28,1.07.55,1.62.8,1.39.82,2.78,1.63,4.18,2.43,1.04.6,2.09,1.19,3.15,1.76.33.17.66.34,1.01.48.02.01.04.03.06.04.14.09.28.19.34.34.05.11.04.23.04.35-.08,1.54-.58,3.03-.6,4.58,0,.29.03.62.25.79.07.06.16.09.24.12.08.03.16.06.23.04.19-.03.27-.27.3-.47.31-1.72.61-3.43.78-5.17.02-.19.02-.39-.05-.57Z"/>
    </g>
    <path class="cls-2" d="M71.73,164.41c-.56-.04-1.11,0-1.66.08-.06,0-.13.02-.18.05-.1.06-.15.19-.18.3-.21.74-.17,1.52-.12,2.29.03.52.06,1.03.09,1.55.02.35.04.71.1,1.05.03.18.08.38.21.51.16.17.42.2.65.22.21.02.42.03.63.05.1,0,.21.01.3-.04.14-.09.17-.28.18-.45.09-1.8.17-3.61,0-5.62Z"/>
    <path class="cls-2" d="M177,93.46l.19.19c.05.37-.37.6-.72.71-1.22.37-2.46.65-3.63,1.15-.49.21-.97.46-1.35.83-.68.67-.96,1.64-1.22,2.57-.33,1.18-.65,2.36-.98,3.54-.1.37-.2.74-.39,1.07-.39.67-1.1,1.08-1.83,1.26-.55.13-1.21.12-1.58-.32-.28-.32-.33-.78-.32-1.21,0-.52.08-1.04.21-1.54.08-.32.19-.64.16-.97-.06-.5-.44-.88-.7-1.31-.58-.97-.51-2.24-.05-3.27s1.27-1.85,2.12-2.56c1.91-1.58,4.15-2.7,6.43-3.61.71-.28,1.43-.55,2.19-.58.19,0,.42.03.5.21.04.09.02.2,0,.3-.16,1.18,0,2.62.96,3.55Z"/>
    <path class="cls-2" d="M198.89,111.68c.26-.34.53-.71.58-1.14s-.18-.94-.6-1c-.18-.03-.37.04-.54.1-1.3.46-2.57,1-3.81,1.61-1.26.62-2.56,1.33-3.96,1.33-.85,0-1.68-.28-2.49-.56-5.88-2.04-11.61-4.57-17.11-7.54-.78-.42-1.67-1.03-1.68-1.94,0-.52.22-1.2-.21-1.45-.21-.12-.47-.06-.69.04-1.1.51-1.7,1.78-2.73,2.42-1.54.95-3.72.31-5.11,1.48-.96.81-1.2,2.31-.79,3.52s1.36,2.15,2.42,2.82c.96.61,2.06,1.04,3.19,1.07s2.3-.36,3.09-1.19c.56-.59.93-1.37,1.59-1.85.52-.38,1.16-.52,1.78-.59,1.4-.14,2.83.09,4.11.67,1.1.49,2.08,1.22,3.05,1.95,2.09,1.56,4.19,3.12,6.28,4.69,1.39,1.03,2.83,2.09,4.5,2.47s3.65-.12,4.54-1.64c.16-.27.3-.58.57-.72.24-.12.53-.07.8-.05,1.04.07,2.11-.44,2.73-1.32s.77-2.08.48-3.19Z"/>
    <path class="cls-2" d="M202.18,103.6l-.12.59c-.01.07-.04.16-.11.19-.05.02-.11,0-.16-.02-.39-.16-.75-.41-1.16-.52s-.9-.03-1.14.32c-.18.26-.17.62-.05.92s.31.55.51.8c.13.16.26.32.39.48.12.15.25.34.19.53-.06.2-.3.27-.5.28-.51,0-1.01-.24-1.36-.62s-.56-.89-.64-1.41c-.06-.39-.05-.8.06-1.18.26-.89,1.09-1.58,1.98-1.62s1.79.6,2.1,1.25Z"/>
    <path class="cls-2" d="M199.32,96.56c-5.06,1.75-10.64,1.85-15.75.26-1.27-.39-2.5-.88-3.72-1.43-.08-.03-.16-.07-.24-.04-.06.02-.11.09-.14.15-.43.72-.45,1.69-.03,2.42.38.68,1.06,1.11,1.73,1.47,4.9,2.65,10.9,3.01,16.07.99.63-.25,1.28-.55,1.73-1.07.63-.72.79-1.84.35-2.75Z"/>
    <path class="cls-3" d="M186.16,82.17c-.43-.23-.94-.17-1.42-.07-3.27.68-6.23,2.79-8.02,5.71-.37.6-.69,1.26-.73,1.96-.05,1.03.5,1.97,1.04,2.84.44.71.89,1.43,1.49,2,.51.48,1.12.84,1.75,1.14,1.93.95,4.04,1.45,6.16,1.79,3.91.63,8.03.72,11.7-.79,1.89-.78,3.77-2.18,4.18-4.24.38-1.96-.66-3.89-1.79-5.5-.92-1.32-2.05-2.65-3.59-2.97-.09-.02-.19-.03-.27.01-.12.07-.14.24-.16.38-.1.69-.55,1.28-1.12,1.64s-1.25.51-1.91.57c-2.91.22-5.87-1.55-7.31-4.47Z"/>
    <path class="cls-3" d="M179.28,97.93c-.01-.65.08-1.3,0-1.95s-.37-1.31-.93-1.61c-.52-.28-1.15-.18-1.72-.04-1.19.27-2.35.65-3.48,1.13-.56.24-1.12.51-1.56.93-.55.52-.88,1.23-1.18,1.93-.58,1.37-1.09,2.82-1.05,4.31,0,.3.04.61.2.86.14.21.35.35.55.48,2.96,1.87,6.16,3.26,9.35,4.66,1.99.87,3.98,1.74,5.97,2.6,1.67.73,3.42,1.47,5.22,1.33,1.19-.09,2.33-.57,3.43-1.06,2.26-1.01,4.47-2.11,6.64-3.31.36-.2.74-.74.39-.95-.12-.07-.27-.05-.4-.03-1.07.12-2.21-.5-2.66-1.51s-.14-2.35.75-2.98,2.26-.41,2.87.52c.62.94.51,2.43,1.48,2.97.77.43,1.7-.06,2.45-.54.68-.44,1.38-.9,1.82-1.59.56-.9.58-2.06.35-3.1-.66-2.92-3.36-5.2-6.26-5.28-.74-.02-1.63.2-1.88.93-.14.42-.03.88-.08,1.32-.12.98-1.02,1.63-1.87,2.08-5.78,3.02-13.21,2.28-18.41-2.08Z"/>
    <path class="cls-3" d="M204.09,107.89c-.49-1.77-1.88-3.25-3.58-3.79-.34-.11-.74-.17-1.01.07-.25.22-.28.63-.16.94s.36.57.58.82c.44.49.85,1.01,1.24,1.55.36.51.7,1.05.92,1.64.21.59.3,1.22.34,1.85.17,2.8-.63,5.55-1.03,8.33-.06.41-.11.84-.01,1.25s.37.8.77.9c.43.11.89-.15,1.15-.51s.38-.83.49-1.27c.44-1.86.84-3.74.99-5.65s-.03-3.83-.66-6.11Z"/>
    <path class="cls-3" d="M215.52,134.04c.41-.58.85-1.31.58-1.98-.23-.57-.86-.81-1.42-1.01-2.42-.86-4.75-1.98-6.94-3.35-.53-.33-1.06-.68-1.51-1.12-.51-.49-.91-1.08-1.26-1.7-.33-.59-.61-1.22-.8-1.87-.23-.76-.34-1.56-.34-2.36,0-.33,0-.7-.21-.95-.14-.15-.34-.23-.54-.25-.8-.08-1.5.68-1.67,1.49s.05,1.66.31,2.45c.35,1.1.76,2.2,1.39,3.16,1.48,2.26,3.99,3.5,6.38,4.65,1.8.87,3.61,1.73,6.05,2.83Z"/>
    <path class="cls-3" d="M221.4,147.88c.86-.51,1.7-1.08,2.38-1.82s1.2-1.69,1.29-2.71c.1-1-.21-2-.72-2.86s-1.2-1.57-1.93-2.23c-2.05-1.85-4.43-3.32-6.98-4.3-.27-.1-.56-.22-.71-.48-.14-.25-.11-.57-.07-.85.05-.38.16-.84.51-.97.2-.07.41-.02.61.04.66.2,1.31.44,1.95.72,1.4.62,2.72,1.43,4.01,2.28,1.71,1.13,3.41,2.36,4.63,4.03s1.91,3.89,1.38,5.91c-.42,1.59-1.55,2.9-2.82,3.9-.55.44-1.14.83-1.76,1.17-.2.11-.41.22-.64.22-.42,0-.76-.34-1.05-.67-.25-.29-.51-.58-.09-1.39Z"/>
    <path class="cls-3" d="M221.42,150.48c1.23.05,2.36-1.2,2.22-2.47-.04-.33-.18-.69-.48-.8-.28-.1-.58.04-.85.18-2.26,1.17-4.67,2.05-7.15,2.61-1.41.32-2.84.53-4.27.74-6.45.94-12.93,1.86-19.44,1.64-.78-.03-1.61-.05-2.28.37s-1,1.49-.43,2.05c.37.37.95.36,1.46.34,10.44-.53,20.46-5.07,31.2-4.64Z"/>
    <path class="cls-3" d="M199.99,152.66c-1.04.27-2.06.6-3.06.98-.16.06-.34.17-.32.34,0,.08.06.14.12.2.41.38,1.01.41,1.56.4,1.02-.02,2.03-.1,3.05-.18,6.55-.54,13.19-1.23,19.31-3.69.43-.17.87-.36,1.24-.65.1-.08.2-.17.23-.3.07-.3-.29-.51-.58-.57-1.77-.38-3.58.24-5.33.71-3.36.92-6.82,1.32-10.27,1.73-1.8.21-3.59.42-5.94,1.03Z"/>
    <path class="cls-3" d="M187.74,155.39c.59.03,1.21-.08,1.66-.47s.66-1.11.36-1.63c-.37-.64-1.24-.67-1.96-.63-12.63.69-25.28,1.09-37.93.71-.58-.02-1.26.01-1.59.51-.34.51-.07,1.25.41,1.61s1.1.44,1.69.5c3.92.4,7.88.38,11.82.31,7.54-.12,15.08-.41,22.62-.86"/>
    <path class="cls-3" d="M106.54,153.13c12.55,1.2,25.13,2.15,37.71,2.87,1.69.1,3.39.19,5.09.12.23,0,.47-.02.69-.13.73-.35.64-1.57.03-2.11s-1.5-.59-2.3-.62c-14.41-.52-28.81-1.5-43.17-2.96-.77-.08-1.61-.14-2.26.3s-.84,1.6-.17,2"/>
    <path class="cls-3" d="M68.31,154.33c-.62.34-.98,1.1-.87,1.81.04.27.16.54.37.7.41.3.97.1,1.43-.1,4.07-1.76,8.48-2.45,12.87-2.92,7.35-.79,14.75-1,22.12-.64.59.03,1.21.05,1.73-.24s.85-1.02.52-1.53c-.18-.28-.51-.42-.83-.53-1.37-.46-2.82-.6-4.27-.69-4.74-.3-9.5-.05-14.24.36-6.52.56-13.38.78-18.84,3.77Z"/>
    <path class="cls-3" d="M69.51,155.02c.17.38.04.84-.21,1.16s-.61.54-.96.75c-.96.59-1.88,1.26-2.64,2.1s-1.35,1.89-1.53,3.02.08,2.38.83,3.24,2,1.26,3.04.85c.1-.04.2-.09.27-.18.06-.08.08-.18.12-.27.18-.38.68-.43,1.09-.42-.07,1.31,0,2.63.21,3.92.02.12.04.26-.03.36-.06.09-.18.13-.28.15-.28.07-.62.13-.82-.09-.11-.12-.14-.3-.23-.44-.18-.26-.53-.29-.83-.32-.91-.08-1.81-.27-2.67-.59-.48-.17-.95-.39-1.34-.72-.3-.25-.54-.57-.75-.9-1.03-1.57-1.53-3.55-1.13-5.4.31-1.41,1.11-2.67,2.08-3.72,1.42-1.55,3.22-2.72,5.18-3.38.18-.06.37-.12.56-.07s.35.23.05.92Z"/>
    <path class="cls-2" d="M185.18,66.5c-1.29.86-2.17,2.35-2.3,3.93s.47,3.21,1.6,4.29c.45.43.98.79,1.23,1.37.29.68.1,1.46.05,2.2-.11,1.73.59,3.4,1.41,4.92.56,1.03,1.2,2.06,2.16,2.69.9.6,2,.79,3.07.88.84.07,1.71.07,2.49-.25s1.47-1.01,1.58-1.88c.11-.86-.36-1.68-.93-2.31s-1.26-1.15-1.76-1.84c-.4-.55-.68-1.21-.79-1.89-.18-1.11.14-2.4,1.07-3,.96-.63,2.22-.35,3.31-.66,1.36-.38,2.35-1.64,2.86-3,.99-2.61.54-5.53.83-8.31.15-1.47.51-2.91.6-4.39s-.11-3.04-.97-4.22c-.85-1.18-2.25-1.82-3.65-2.08-1.79-.33-3.68-.09-5.35.67-.94.43-1.81,1.03-2.78,1.38-1.27.46-2.74.51-3.75,1.43-.97.88-1.31,2.39-2.39,3.11-.99.66-2.46.36-3.14-.64-.22-.32-.36-.7-.59-1.01-.62-.87-1.86-1.13-2.83-.71s-1.63,1.42-1.81,2.49.09,2.18.59,3.13c.87,1.65,2.47,2.86,4.25,3.21,2.06.41,4.33-.26,5.92.5Z"/>
    <path class="cls-2" d="M198.38,55.73c.67-.5,1.41-1.12,1.43-1.98.02-.71-.47-1.32-.98-1.79-1.4-1.32-3.19-2.23-5.07-2.37s-3.86.56-5.13,2.01-1.74,3.66-1,5.46c.14.35.34.69.61.95.65.62,1.63.68,2.49.51"/>
    <g>
      <path d="M228.41,143.08c-.01-.68-.14-1.37-.38-2.01-.45-1.23-1.22-2.3-2.08-3.27-.15-.17-.31-.34-.48-.49-2.78-2.96-6.56-4.77-10.27-6.36-.16-.07-.31-.13-.47-.2-1.52-.78-3.15-1.35-4.7-2.07-2.26-1.04-4.51-2.56-5.47-4.92-.6-1.48-.62-3.14-.42-4.73.2-1.59.6-3.15.82-4.73.23-1.68.22-3.43-.13-5.08-.05-.45-.16-.9-.31-1.33-.12-.35-.27-.7-.43-1.04.57-.3,1.15-.59,1.72-.89.49-.25.98-.51,1.46-.79.46-.27.92-.59,1.15-1.08.26-.54.18-1.18.1-1.77-.1-.74-.2-1.48-.3-2.22-.08-.59-.16-1.18-.39-1.73-.04-.1-.09-.19-.14-.27-.02-.04-.04-.08-.06-.12-.2-.29-.51-.48-.82-.65-1.47-.82-3.01-1.51-4.54-2.19,1.07-1.27,1.35-3.15.96-4.8-.42-1.76-1.5-3.29-2.72-4.59-.97-1.04-2.1-1.96-3.42-2.43-.17-.43-.45-.83-.81-1.11-.29-.23-.62-.38-.92-.6-.69-.49-1.17-1.26-1.46-2.08s-.39-1.69-.44-2.56c0-.13-.01-.26-.02-.39.85-.11,1.66-.51,2.33-1.07.56.42,1.39.4,2.07.14,1.43-.54,2.5-1.85,3.09-3.31s.75-3.06.81-4.63c.06-1.58.04-3.16.28-4.72.22-1.44.68-2.86.64-4.32-.05-1.76-.88-3.46-2.18-4.58-.03-.03-.06-.05-.08-.08.03-.11.03-.23.02-.34-.12-.9-.59-1.73-1.22-2.36-.63-.63-1.42-1.08-2.24-1.41-1.35-.55-2.81-.79-4.26-.72-1.46.08-2.93.5-4.09,1.42-1.16.92-1.97,2.37-1.94,3.88,0,.21.04.43.11.63-.09.02-.18.04-.26.07-.88.29-1.71.82-2.28,1.57-.21.28-.39.58-.56.89-.18.33-.35.67-.44.95-.17.18-.35.35-.55.5-.58.4-1.38.57-1.99.21-.74-.43-.96-1.42-1.58-2.03-.24-.23-.53-.4-.83-.54-.51-.24-1.06-.42-1.62-.36-.43.04-.83.21-1.19.46-.86.59-1.44,1.58-1.63,2.63s0,2.16.44,3.13c.86,1.93,2.67,3.29,4.64,3.89,1.59.48,3.28.49,4.92.24-.04.04-.07.08-.11.12-1.22,1.58-1.63,3.77-1.16,5.73.38,1.59,1.32,3,2.56,4.01,0,.05,0,.09,0,.14-.02.22-.04.44-.04.66-.01.68,0,1.35.03,2.03-.01.68.05,1.35.2,2.01-2.06.35-4.09,1.05-5.81,2.28-1.75,1.25-3.16,3.07-3.72,5.2-2.54.4-4.93,1.55-7.16,2.87-.68.4-1.35.82-1.96,1.33-.74.62-1.39,1.38-1.89,2.22-.5.84-.87,1.79-.89,2.78-.02.99.34,2.01,1.09,2.62.08.06.16.12.25.16-.27.62-.45,1.28-.47,1.96,0,.23,0,.45.03.68,0,.03.02.07.02.1-.87-.02-1.73-.03-2.58.13-1.28.25-2.57.98-3.07,2.23-.22.55-.27,1.17-.22,1.76.13,1.42.83,2.76,1.86,3.71,1.03.95,2.36,1.52,3.73,1.68.9.11,1.84.05,2.69-.28.85-.33,1.62-.93,2.08-1.74.13-.24.23-.49.3-.76,1.52-1.05,3.6-1.13,5.38-.57,2.04.64,3.78,2,5.48,3.34,1.07.84,2.13,1.67,3.2,2.51.63.49,1.25.98,1.9,1.44,1.09.82,2.25,1.51,3.56,1.89.63.18,1.28.27,1.93.24.09,0,.19.02.28.01,1.42-.04,2.96-.74,3.47-2.11.03-.09.04-.19.06-.28.01,0,.03.01.04.02.52.18,1.1.14,1.63,0,.66-.17,1.28-.49,1.79-.95.51-.46.91-1.06,1.1-1.74.19-.69.15-1.42-.05-2.1.59-.66.75-1.69.39-2.5-.03-.06-.06-.12-.1-.17.59-.3,1.18-.6,1.75-.95,0,0,.01,0,.02-.01.44.87.68,1.86.74,2.85.08,1.44-.17,2.88-.47,4.29-.11.53-.22,1.06-.32,1.59-.01.06-.03.12-.04.18-.65,2.93-.6,6.18.9,8.76,1.7,2.93,4.89,4.49,7.9,5.89,2.07.96,4.14,1.93,6.21,2.89,2.26,1.18,4.43,2.53,6.33,4.25.19.17.38.35.56.54.33.4.63.82.85,1.3.4.86.55,1.84.46,2.79-.14.58-.38,1.13-.71,1.61-.14.2-.32.37-.48.55-.34.31-.69.61-1.07.87-.75.53-1.57.93-2.4,1.31-.71.32-1.44.61-2.18.88-1.65.51-3.35.87-5.06,1.18-1.21.14-2.42.38-3.63.61-.76.04-1.52.17-2.28.29-4.71.73-9.51.72-14.24,1.2-.69.02-1.38.04-2.06.06-8.22.24-16.44.47-24.46.8-.98-.12-1.97-.12-2.96-.11-13.75.05-27.5-.44-41.21-1.46-11.39-1.31-22.88-2.38-34.23-1.09-3.91.16-7.81.61-11.66,1.36-2.01.39-4.03.88-5.95,1.62-1.34.45-2.64,1.03-3.85,1.77-1.67,1.02-3.2,2.39-4.11,4.17s-1.15,3.99-.31,5.8c.03.07.07.13.1.2.22.55.5,1.06.85,1.53,1.27,1.65,3.36,2.56,5.39,2.4,0,.03,0,.05.01.08.04.18.09.37.22.49.14.14.34.17.54.2.21.03.42.04.63.03.05.22.12.42.27.58.16.16.37.24.59.27.22.03.44-.07.86-.04.14.01.29-.03.41-.12.05-.04.1-.09.13-.15.06-.15-.07-.33-.21-.38-.15-.06-.31-.03-.47-.01-.23.03-.47.04-.7.04-.06,0-.13,0-.18-.04-.05-.03-.07-.08-.1-.13-.09-.2-.12-.42-.14-.64-.1-.85-.12-1.72-.12-2.58,0-.55.01-1.11.11-1.65.02-.09.04-.18.09-.24.09-.1.23-.11.36-.11.17,0,.33,0,.5-.01.15,0,.34-.03.41-.17.04-.07.03-.16.02-.24,0-.06-.01-.13-.05-.18-.05-.07-.13-.09-.21-.1-.28-.04-.57-.05-.86-.02-.23.03-.48.09-.64.27-.1.12-.16.27-.19.43,0,0,0,.01,0,.02-.27,0-.55,0-.81.06-.14.03-.28.06-.38.16-.09.09-.14.22-.16.35-.03.17-.04.34-.04.52-.74.14-1.54.05-2.19-.36-.94-.59-1.45-1.78-1.4-2.92s.58-2.21,1.33-3.06c.74-.84,1.68-1.47,2.64-2.03.21-.12.41-.23.62-.34,3.16-1.46,6.61-2.26,10.05-2.74,3.79-.53,7.62-.72,11.42-1.14,6.66-.14,13.33-.02,19.99.37,15.58,1.59,31.18,2.94,46.83,2.88.39,0,.79-.01,1.18-.01,16.09.25,32.19-1.01,48.25-2.27.28-.02.59-.06.88-.14.55-.05,1.09-.12,1.64-.19,4.89-.63,9.85-1.53,14.17-3.97,2.02-1.14,3.96-2.72,4.78-4.94.24-.64.36-1.35.29-2.01ZM198.82,106.41c-.06-.07-.12-.13-.18-.21-.17-.25-.28-.53-.35-.83-.13-.57-.07-1.19.2-1.71s.74-.92,1.3-1.05c.12-.03.24-.04.37-.04.64.04,1.24.46,1.54,1.05.08.16.13.35.14.53-.34-.21-.71-.39-1.09-.5-.48-.13-1.05-.15-1.42.19-.28.26-.39.68-.33,1.07.05.39.25.74.48,1.04.25.32.55.61.84.89-.08.01-.17.03-.25.04-.46.06-.9-.19-1.25-.5ZM206.67,98.7c.05.06.09.12.13.18,0,.02.01.03.02.05.4,1.21.57,2.48.75,3.75.02.18.05.35,0,.53-.07.32-.34.54-.6.73-1.07.77-2.24,1.37-3.4,1.98-.14-.21-.29-.42-.45-.62-.23-.28-.49-.52-.76-.75.01-.06.03-.13.03-.19,0-.68-.35-1.34-.88-1.74-.36-.27-.79-.4-1.23-.43,0,0,0,0-.01,0,0,0-.02,0-.02,0-.06,0-.12,0-.18,0-.86,0-1.71.5-2.13,1.28-.46.84-.43,1.93.04,2.76.18.31.41.59.71.78.09.06.18.1.28.14.31.19.66.32,1.03.35.24.02.49,0,.71-.1.02,0,.04-.03.06-.04.03.04.05.08.09.12-2.18,1.19-4.4,2.27-6.64,3.33-.96.45-1.94.9-2.94,1.24-.21.05-.42.09-.64.11-.85-.09-1.7-.36-2.51-.66-1.45-.53-2.87-1.15-4.29-1.77-4.2-1.85-8.38-3.75-12.56-5.65-.39-.18-.79-.36-1.11-.65-.24-.22-.42-.51-.49-.83,0-.12.02-.23.03-.35.08-.47.22-.93.36-1.39.31-1.02.63-2.04,1.04-3.01.17-.41.37-.82.69-1.11.29-.27.67-.42,1.03-.56,1.53-.59,3.07-1.14,4.63-1.66.49.45,1.02.83,1.6,1.16-.11.84-.19,1.73.21,2.47.25.46.66.8,1.08,1.09.38.26.77.49,1.18.7,1.6.93,3.41,1.5,5.22,1.84,3.93.74,8.2.51,11.64-1.6.05-.03.09-.06.14-.09.02-.01.05-.02.07-.04.36-.2.71-.43.97-.75.01-.01.03-.02.04-.03,0,0,0,0-.01,0,.04-.05.09-.1.12-.16.37-.64.25-1.44.12-2.17,0-.04-.02-.07-.03-.11.42-.21.82-.45,1.19-.72.09-.03.17-.06.25-.1,1.52.55,3.01,1.22,4.42,2.02.35.2.71.41.98.72ZM199.22,97.07c.1.68.12,1.39-.28,1.92-.24.3-.58.49-.93.66-5.3,2.57-11.78,2.3-16.9-.63-.46-.26-.92-.56-1.26-.97s-.56-.97-.46-1.51c.04-.21.12-.41.15-.63,0,0,0,0,0,0,.62.31,1.25.59,1.89.83,5.71,2.14,12.19,2.76,17.79.34ZM189.08,51.75c.89-.86,2.07-1.35,3.27-1.55,2.21-.36,4.59.3,6.23,1.89.37.36.7.78.87,1.27-.26-.14-.53-.25-.81-.35-2.6-.93-5.62-.51-7.9,1.09-.36.25-.69.54-.96.89-.17-.04-.35-.06-.53-.08-.51-.05-1.03-.05-1.55,0-.02-1.19.53-2.35,1.37-3.16ZM178.48,65.27c-.44-.16-.85-.39-1.25-.65-.83-.56-1.58-1.29-2.05-2.19-.47-.9-.65-2-.37-2.98.28-.99,1.07-1.83,2.04-2.05.26-.06.54-.07.8,0,.6.17.98.76,1.36,1.27.49.68,1.09,1.32,1.86,1.62.56.22,1.23.19,1.75-.1-.05.19-.1.4-.04.59.01.05.04.1.08.12.07.03.15-.05.19-.12.83-1.28,1.37-2.83,2.55-3.78.76-.61,1.73-.91,2.7-.99.96-.08,1.93.05,2.89.21.15.02.35,0,.36-.15,0-.05-.02-.09-.04-.13-.15-.26-.37-.47-.62-.63-.01,0-.03-.01-.04-.02.04-.04.09-.08.13-.12.21-.23.44-.43.68-.62.08-.05.16-.1.24-.14,1.24-.72,2.64-1.17,4.06-1.2,1.26-.03,2.53.29,3.62.94.2.17.4.34.58.53.73.93,1.3,2.01,1.46,3.19.26,1.92-.55,3.81-.81,5.73-.25,1.88.04,3.8-.08,5.7-.12,1.9-.78,3.93-2.36,4.91-.47.29-1.01.45-1.55.43.36-.45.67-.93.92-1.45.14-.28.26-.57.35-.87.21-.69.24-1.44.08-2.15-.01-.06-.03-.12-.07-.16-.04-.05-.11-.07-.16-.04-.03.02-.05.06-.07.09-.09.22-.11.46-.15.69-.28,2.02-1.63,3.85-3.44,4.67-.21.1-.44.17-.66.22.04-1.57.36-3.14,1.34-4.32.09-.11.2-.26.15-.4-.09-.23-.42-.11-.59.06-.5.5-.8,1.18-1.04,1.86-.59,1.72-.81,3.57-.64,5.39.1,1.06.36,2.15,1.02,2.96.42.51.97.87,1.46,1.31s.92,1.01.96,1.67c.04.51-.19,1-.52,1.39-.5.42-1.13.68-1.78.8-1.06.19-2.16.05-3.18-.28-.15-.05-.29-.11-.43-.16-1.79-.94-2.99-2.85-3.48-4.87-.5-2.1-.32-4.32.07-6.45.39-2.16.97-4.42.28-6.49-.25-.73-.66-1.42-1.28-1.85-.62-.43-1.37-.56-2.13-.58-1.72-.15-3.52.21-5.15-.39ZM183.39,71.4c-.12-1.13.26-2.26.86-3.21.18-.29.39-.57.68-.77.08-.06.18-.1.27-.14.73.62,1.24,1.56,1.44,2.53-.02.05-.04.1-.07.15-.17.3-.39.58-.64.82-.06.06-.13.12-.16.19-.04.08-.04.18.02.24.07.08.2.06.3.02.21-.08.4-.21.56-.37.04-.04.07-.09.1-.14.06,1.24-.21,2.51-.55,3.71-.06.2-.12.4-.18.6-.05-.05-.11-.1-.17-.14-1.25-.75-2.29-2.02-2.45-3.51ZM177.83,86.84c.86-1.2,2.03-2.12,3.28-2.87,1.38-.83,2.91-1.46,4.49-1.58.34.94.85,1.81,1.5,2.56.04.06.07.13.11.19.17.21.36.4.57.58,1,.86,2.18,1.5,3.45,1.77,1.27.27,2.63.17,3.81-.37.39-.18.76-.44,1.02-.77.27-.23.52-.49.73-.8.2-.3.35-.64.42-.99,2.01,1,3.72,2.73,4.48,4.9.32.92.47,1.92.31,2.88-.16.97-.63,1.85-1.23,2.63-.13.11-.26.22-.39.31-1.08.77-2.36,1.21-3.63,1.53-4.78,1.18-9.88.76-14.53-.87-1.35-.47-2.7-1.06-3.79-2.02-.91-.8-1.62-1.89-1.85-3.08-.07-1.42.43-2.83,1.25-3.98ZM165.02,98c0-.78.28-1.55.67-2.22.6-1.04,1.49-1.87,2.43-2.58,2.06-1.56,4.46-2.63,6.97-3.11.17-.03.34-.07.51-.12-.19,1.37.34,2.8,1.23,3.88-1.56.46-3.17.77-4.64,1.47-.35.17-.69.36-.98.63-.19.18-.35.4-.49.63-1.01.09-1.97.56-2.81,1.15-.83.59-1.59,1.3-2.16,2.17-.01.02-.02.04-.04.06-.46-.53-.7-1.24-.69-1.96ZM168.11,110.99c-.74.72-1.8,1.01-2.82,1.03-1.43.02-2.89-.47-3.91-1.51-.3-.3-.55-.65-.79-1.01-.53-.81-.95-1.83-.62-2.75.18-.51.58-.91,1.03-1.19s.96-.44,1.46-.59c.51-.15,1.04-.35,1.8-.3,1.38.1,2.88-.24,3.78-1.33.11-.13.21-.29.19-.46-.02-.17-.23-.31-.36-.2-.05.05-.08.12-.1.18-.13.3-.41.51-.71.61-.3.1-.62.12-.94.12-.15,0-.31,0-.47,0,0-.06,0-.12,0-.18-.11-1.45.4-2.92,1.32-4.02.85-1.02,2.03-1.69,3.3-1.99-.46,1-.87,2.03-1.21,3.08-.19.58-.36,1.16-.41,1.77-.01.16-.01.32,0,.48,0,.35.11.69.32.97.17.22.39.39.61.55.05.04.1.07.15.11.28.23.59.42.91.59,1.32.73,2.68,1.37,4.04,2,4.3,2,8.61,4.01,13.06,5.62.81.29,1.64.58,2.49.63.51.03,1.04-.04,1.52-.21.4-.09.78-.24,1.16-.4.78,1.01,1.49,2.18,1.22,3.41-.22,1-1.08,1.75-2.03,2.02s-1.97.12-2.91-.19c-1.81-.59-3.4-1.75-4.91-2.95-2.57-2.05-5.03-4.32-7.94-5.81-1.12-.58-2.32-1.04-3.57-1.13-1.1-.08-2.24.18-3.15.81-.03-.14-.05-.27-.11-.4-.08-.2-.19-.4-.35-.55-.15-.13-.43-.18-.49,0-.03.1.02.2.06.29.45.95.1,2.16-.64,2.88ZM197.94,114.67c-.32.35-.72.6-1.15.8-.34.16-.71.28-1.08.29-.27.01-.54-.07-.79-.2.11-1.17-.3-2.4-1.11-3.23-.03-.03-.07-.06-.1-.09.46-.23.91-.48,1.37-.72.86-.45,1.74-.85,2.62-1.26.1.15.2.3.3.45.38.59.62,1.28.63,1.99,0,.71-.23,1.43-.69,1.95ZM198.68,110.59c-.04-.06-.09-.13-.13-.18-.1-.13-.22-.25-.35-.36.21-.1.41-.2.62-.29.03.28-.02.57-.13.83ZM68.55,166.13c0-.11.02-.23.1-.29.05-.04.11-.05.18-.06.09-.01.18-.01.27,0,.04,0,.08,0,.11-.02-.06,1.22.04,2.45.16,3.67-.14,0-.27,0-.41.01-.1,0-.21,0-.27-.08-.03-.04-.04-.08-.04-.13-.18-1.02-.18-2.06-.11-3.09ZM223.62,148.9c-1.77,1.1-3.75,1.8-5.75,2.37-4.18,1.19-8.47,1.81-12.78,2.36-15.07,1.3-30.19,2.02-45.32,2.15-13.5-.06-27-.71-40.45-1.96-4.96-.46-9.92-1-14.9-1.1-4.39-.23-8.77-.29-13.16-.05-.37.02-.74.05-1.11.08-.14,0-.28,0-.42.01-.47.02-.94.05-1.41.1-2.46.18-4.92.42-7.37.71-2.69.31-5.38.67-8,1.38-1.66.45-3.3,1.07-4.76,1.98-1.4.72-2.67,1.68-3.55,3-.7,1.05-1.14,2.36-.93,3.62.15.91.65,1.76,1.36,2.33s1.61.87,2.51.83c.02,0,.04,0,.06,0,.05,0,.1.01.16.02.04,0,.09,0,.13-.01,0,.53,0,1.07.03,1.6,0,.11.02.21.02.32-1.4.12-2.83-.32-3.94-1.21-1.17-.95-1.95-2.38-2.13-3.91-.05-.41-.05-.82-.03-1.23.14-1.27.62-2.53,1.33-3.58,1.24-1.82,3.1-3.1,5.06-4.01.24-.11.49-.21.74-.31,7.32-2.79,15.33-3.37,23.17-3.61.46-.01.92-.03,1.38-.09,1.45-.03,2.89-.05,4.34-.05,8.61.37,17.21.94,25.79,1.72.38.03.77.07,1.15.1.13.02.26.03.39.05.25.04.52.06.78.04,11.95.98,23.95,1.39,35.94,1.23,1.16-.02,2.32-.04,3.31-.16,11.96.03,23.93-.28,35.86-1.18,2.98-.22,5.98-.49,8.91-1.1,0,0,0,0,0,0,4.56-.66,9.23-1.61,13.08-4.24.38-.26.77-.57,1.07-.94.49-.47.85-1.13,1-1.81.26-1.19.03-2.44-.49-3.54-.26-.59-.6-1.15-1-1.65-.75-.94-1.68-1.69-2.65-2.39-1.9-1.37-3.96-2.5-6.12-3.39-.22-.1-.43-.2-.65-.29-.99-.44-1.98-.88-2.97-1.33-1.57-.7-3.15-1.41-4.6-2.33-.08-.05-.15-.1-.23-.15-.32-.21-.62-.44-.93-.67-1.11-.87-2.11-1.9-2.78-3.15-1.41-2.63-1.24-5.86-.69-8.81.19-1.01.41-2.02.56-3.03.07-.43.14-.85.17-1.28.13-1.53-.07-3.15-.92-4.41-.15-.22-.32-.43-.5-.64-.02-.02-.03-.04-.05-.06-.04-.04-.08-.08-.12-.13-.07-.08-.14-.16-.2-.23-.37-.41-.72-.83-1.08-1.25-.27-.32-.54-.76-.37-1.14.02-.02.02-.05.04-.07,0,0,0,0,0,0,.08-.08.17-.13.28-.16.06-.02.13-.02.19-.02.15.04.3.1.44.17.74.36,1.41.88,1.95,1.5.4.46.74.99,1.03,1.53.75,1.91,1.08,4.01.92,6.07-.14,1.89-.68,3.72-.97,5.6-.29,1.87-.3,3.88.52,5.57,1.01,2.05,3.07,3.29,5.07,4.3,1.24.62,2.5,1.2,3.78,1.73.41.17.82.33,1.23.49.06.03.13.06.19.08,3.75,1.63,7.43,3.58,10.42,6.43,1.1,1.05,2.12,2.25,2.64,3.7.28.77.39,1.62.3,2.43-.16.72-.45,1.42-.84,2.04-.79,1.27-1.94,2.26-3.19,3.04Z"/>
      <path d="M177.44,91.45c.15.27.38.48.6.69.74.67,1.57,1.23,2.46,1.68,1.55.84,3.28,1.39,5,1.75,3.51.75,7.17.93,10.67.13,1.22-.28,2.42-.74,3.57-1.55.1-.07.21-.14.3-.21.05-.04.11-.07.16-.11.15-.12.3-.25.44-.39.01-.01.03-.02.04-.03.28-.28.55-.61.64-1,0-.03.01-.07,0-.1-.02-.03-.06-.03-.09,0-.03.02-.05.05-.07.08-.03.04-.06.08-.09.12-1.15,1.11-2.53,1.96-4.03,2.44-1.56.5-3.21.62-4.84.65-2.59.05-5.2-.12-7.72-.74-1.8-.45-3.55-1.15-5.15-2.12-.49-.34-.97-.71-1.43-1.1-.12-.1-.23-.2-.37-.28-.03-.02-.06-.03-.09-.01-.04.03-.02.09,0,.13Z"/>
      <path d="M204.82,98.7c-2.01,1.1-4.07,2.1-6.14,3.07-1.23.58-2.48,1.12-3.72,1.67-.47.19-.94.39-1.42.58-.52.2-1.05.39-1.58.55-.4.05-.8.06-1.2.06-.77-.08-1.53-.29-2.28-.54-2.44-.81-4.8-1.87-7.15-2.94-2.61-1.18-5.23-2.37-7.84-3.55-.31-.15-.63-.3-.96-.39-.06-.02-.13-.03-.17.02-.03.04-.03.1,0,.14.01.02.04.03.05.05.02.04.04.07.08.1.1.09.22.16.34.22.02.01.05.02.07.03.03.01.05.03.08.04.15.07.29.14.44.21.03.02.06.03.1.05,4.58,2.17,9.17,4.33,13.87,6.22.82.33,1.64.65,2.51.79.15.02.3.03.46.05.86.1,1.74-.05,2.57-.31.74-.24,1.45-.56,2.16-.89,2.11-.96,4.22-1.93,6.3-2.97,1.28-.63,2.54-1.28,3.77-1.99.08-.05.17-.1.24-.17.04-.02.08-.04.11-.08.05-.05.07-.15.02-.2-.03-.03-.06-.03-.1-.03-.05,0-.1.02-.15.04-.02,0-.04.02-.06.03-.13.03-.25.09-.36.15Z"/>
      <path d="M191.31,106.24c0-.07-.02-.14-.03-.21,0-.04,0-.09,0-.13,0-.06-.02-.13-.05-.18-.01-.02-.02-.03-.04-.04-.03-.02-.07,0-.1.02,0,0,0,.01-.01.02,0,0-.01,0-.02.01,0,0,0,.02-.01.03,0,0-.01.02-.02.02,0,0,0,.02,0,.03-.06.11-.1.23-.12.36,0,0,0,0,0,.01,0,0,0,0,0,0-.03.21-.04.42-.05.63-.05,1.09-.06,2.17-.03,3.26,0,.15-.01.29-.02.44,0,.32-.02.65.04.97.01.09.04.19.12.22.08.04.18-.01.23-.09.05-.08.06-.18.07-.27.02-.21.04-.41.06-.62.13-1.35,0-2.5,0-3.64,0-.28,0-.57,0-.85Z"/>
    </g>
    <path d="M157.2,187.84c-.84.71-1.94,1.22-3.31,1.55-1.37.33-2.88.49-4.53.49-.81,0-1.99-.01-3.53-.04-1.54-.03-3.46-.07-5.77-.12l-.28-.29v-27.45l.28-.29c1.52-.05,3.11-.09,4.75-.12s3.37-.04,5.18-.04c2.23,0,4.1.37,5.6,1.1,1.5.73,2.69,1.74,3.58,3.02.89,1.28,1.52,2.78,1.89,4.51.37,1.73.55,3.58.55,5.57,0,2.72-.3,5.07-.91,7.06-.6,1.98-1.77,3.67-3.51,5.06ZM149.95,184.78c3.47,0,5.2-3.02,5.2-9.05s-1.73-9.1-5.2-9.1h-2.23c-.64,0-1.2-.01-1.68-.04v18.23c.47-.03,1.03-.04,1.68-.04h2.23Z"/>
    <path d="M172.29,181.4l-.04,2.94v.04c1.2-.05,2.17-.08,2.91-.08h9.11c0,1-.04,1.78-.12,2.33-.31,2.09-1.65,3.14-4.02,3.14h-10.48c-1.13,0-2.02-.34-2.66-1.02-.64-.68-.97-1.61-.97-2.78v-23.9l.28-.29h16.98c.16.79.24,1.64.24,2.57s-.18,1.89-.55,2.9h-10.72l.04,2.94v2.86c.68-.03,1.57-.04,2.67-.04h6c.24.76.35,1.63.35,2.61s-.12,1.88-.35,2.69h-8.67v3.1Z"/>
    <path d="M187.82,189.55l2.09-27.74c1.16-.22,2.52-.33,4.1-.33s2.95.11,4.14.33l2.32,9.99c.92,4.51,1.4,6.98,1.46,7.38h.28c.1-.68.59-3.14,1.46-7.38l2.36-9.99c1.16-.22,2.52-.33,4.1-.33s2.95.11,4.14.33l2.09,27.74c-.81.22-1.82.33-3.01.33s-2.17-.07-2.94-.21l-.63-11.34c-.18-4.51-.29-7.65-.32-9.42h-.24l-3.9,16.6c-.94.16-2.03.25-3.25.25s-2.31-.08-3.25-.25l-3.86-16.6h-.28c0,2.42-.11,5.56-.32,9.42l-.59,11.34c-.76.14-1.74.21-2.94.21s-2.2-.11-3.01-.33Z"/>
    <path class="cls-5" d="M223.67,185.68c.21-.12.47-.18.79-.18.14,0,.27.01.38.03.11.02.21.05.29.09.08.04.14.12.17.24.03.12.04.27.04.47s-.01.33-.03.45-.07.2-.15.24c-.08.04-.17.08-.28.1-.11.02-.25.03-.42.03s-.3-.01-.41-.03-.21-.05-.3-.09c-.08-.03-.14-.11-.16-.24-.03-.12-.04-.28-.04-.47,0-.28.04-.49.11-.64Z"/>
    <path class="cls-5" d="M231.25,186.5c-.46.48-1.08.72-1.84.72-.44,0-.83-.08-1.17-.24-.34-.16-.62-.39-.85-.7-.23-.3-.41-.66-.53-1.08-.12-.42-.18-.88-.18-1.4s.06-.97.18-1.39c.12-.42.3-.78.53-1.08.23-.3.52-.53.85-.69.34-.16.73-.24,1.17-.24s.83.08,1.17.24c.34.16.62.39.85.69.23.3.41.66.53,1.08.12.42.18.88.18,1.39,0,1.17-.3,2.07-.9,2.69ZM229.42,181.44c-.92,0-1.37.79-1.37,2.37s.46,2.37,1.37,2.37,1.39-.79,1.39-2.37-.46-2.37-1.39-2.37Z"/>
    <path class="cls-5" d="M233.34,181.2c.08-.32.24-.56.48-.72.58.13.97.52,1.15,1.17.34-.78.89-1.17,1.66-1.17.2,0,.43.03.67.08,0,.51-.11.94-.32,1.28-.08-.03-.25-.05-.52-.07-.57,0-1.03.33-1.36,1v4.27c-.16.03-.38.05-.65.05s-.49-.02-.65-.05v-4.5c0-.59-.16-1.04-.47-1.35Z"/>
    <path class="cls-5" d="M241.96,181.08c.19-.31.48-.51.87-.6.1.07.2.17.3.31.1.14.16.27.18.38-.24.24-.35.65-.35,1.25v3.88c0,.67-.05,1.24-.16,1.7-.11.46-.27.84-.49,1.12-.22.28-.5.49-.84.62-.34.13-.74.19-1.22.19-.75,0-1.48-.14-2.19-.43,0-.42.12-.76.34-1.02.53.27,1.11.41,1.72.41s1.01-.16,1.23-.48c.22-.32.33-.77.33-1.34v-.6c-.5.47-1.08.71-1.76.71s-1.19-.3-1.56-.9c-.38-.6-.56-1.43-.56-2.49,0-.53.06-1.01.19-1.42s.3-.77.53-1.06c.23-.29.49-.51.78-.66.29-.15.6-.23.93-.23.68,0,1.25.23,1.72.68ZM241.7,185.26v-3.2c-.42-.39-.84-.59-1.24-.59s-.73.2-.96.59c-.24.39-.35.98-.35,1.75s.11,1.32.32,1.68c.21.36.49.54.82.54.52,0,1-.26,1.42-.78Z"/>
    <g>
      <path d="M229.01,173.54c-.36.03-.72.09-1.08.14.04-.07.09-.15.16-.23.18-.21.4-.42.65-.64.25-.22.48-.42.7-.61l1.34-1.09c.41-.36.78-.72,1.12-1.1.34-.38.61-.78.82-1.22.21-.44.31-.93.31-1.48,0-.78-.16-1.47-.49-2.05s-.79-1.03-1.38-1.35c-.6-.32-1.29-.48-2.09-.48-.7,0-1.32.15-1.87.44-.55.29-1,.69-1.37,1.19-.37.5-.63,1.04-.79,1.65.18.28.49.5.92.66.43.16.82.24,1.16.25.11-.42.3-.81.57-1.17.27-.36.64-.54,1.09-.54.41,0,.73.13.96.38.22.26.34.57.34.94s-.09.7-.28.99c-.19.29-.42.56-.69.81l-2.04,1.82c-.38.36-.74.72-1.06,1.08-.33.37-.59.73-.79,1.09-.2.36-.3.72-.3,1.08s.1.7.31,1.01c.2.31.43.62.69.93h5.61c.66,0,1.14-.19,1.42-.56s.43-1.05.43-2.03h-2.58c-.5,0-1.09.03-1.76.09Z"/>
      <path d="M242.73,168.73c-.63-.65-1.45-.98-2.46-.98-.59,0-1.12.12-1.59.34-.25.13-.48.27-.69.44.03-.45.09-.87.21-1.23.16-.47.4-.84.75-1.11.34-.27.79-.4,1.36-.4.37,0,.71.04,1.03.11.32.07.6.17.85.28.28-.24.5-.55.66-.93.16-.38.25-.76.28-1.15-.38-.21-.83-.37-1.34-.49-.51-.12-1.09-.18-1.72-.18-1.08,0-2.01.26-2.78.79-.77.52-1.36,1.28-1.76,2.26-.4.98-.61,2.16-.61,3.54,0,.83.05,1.53.14,2.09.09.56.21,1.03.35,1.39.14.36.27.64.41.85.14.21.25.37.34.49.12.16.31.35.57.58.26.23.61.43,1.05.61.44.18.99.27,1.64.27.77,0,1.48-.17,2.12-.51.64-.34,1.16-.84,1.55-1.49s.59-1.45.59-2.4c0-1.46-.31-2.52-.94-3.17ZM240.47,173.5c-.21.38-.55.56-1.02.56-.23,0-.42-.05-.58-.15-.15-.1-.28-.22-.38-.35-.11-.16-.21-.35-.29-.59-.08-.24-.14-.53-.18-.86-.04-.33-.06-.71-.06-1.13v-.2c.22-.19.45-.34.7-.44.27-.11.55-.17.84-.17s.51.06.69.19c.19.13.33.33.43.61.1.28.15.65.15,1.11,0,.57-.1,1.04-.31,1.42Z"/>
    </g>
    <g>
      <path d="M88.05,161.78h-16.87l-.28.25v27.66c.54.1,1.11.16,1.7.18s1.11.04,1.54.04.94-.01,1.48-.04c.54-.03,1.08-.09,1.62-.18v-11.23c.25,0,.5.01.75.01h7.66c.12-.39.2-.85.26-1.37.05-.52.08-.96.08-1.33s-.03-.79-.08-1.31c-.05-.52-.14-.97-.26-1.35h-7.66c-.25,0-.5,0-.75,0v-2.6c0-1.03,0-2.11-.02-3.23,0,0,0,0,0,0,.87.01,1.81.02,2.79.02h4.93c1.13,0,1.98-.24,2.54-.72.56-.48.84-1.25.84-2.31,0-.38-.02-.81-.06-1.28-.04-.47-.11-.88-.22-1.24Z"/>
      <path d="M110.68,165.19c-.97-1.28-2.19-2.27-3.66-2.96s-3.21-1.04-5.21-1.04c-2.66,0-4.85.6-6.58,1.81-1.73,1.21-3.02,2.9-3.87,5.08s-1.27,4.73-1.27,7.64c0,2.18.24,4.16.71,5.95.47,1.78,1.19,3.32,2.15,4.61.96,1.29,2.18,2.28,3.65,2.97,1.47.69,3.21,1.04,5.21,1.04,2.66,0,4.85-.6,6.58-1.81,1.73-1.21,3.02-2.9,3.88-5.09s1.28-4.74,1.28-7.67c0-2.17-.24-4.14-.71-5.92-.47-1.78-1.19-3.32-2.16-4.6ZM106.77,179c-.11,1.12-.34,2.15-.69,3.1-.35.95-.86,1.71-1.54,2.3s-1.59.88-2.73.88-2.04-.29-2.72-.88c-.68-.59-1.2-1.35-1.55-2.3-.35-.95-.58-1.98-.69-3.1-.11-1.12-.17-2.21-.17-3.29s.06-2.17.17-3.28c.11-1.11.34-2.14.69-3.09.35-.95.87-1.71,1.55-2.29.68-.58,1.59-.87,2.72-.87s2.06.29,2.73.87,1.19,1.34,1.54,2.29c.35.95.58,1.97.69,3.09s.17,2.2.17,3.28-.06,2.17-.17,3.29Z"/>
      <path d="M135.24,178.24c-.46-1.01-1.14-1.93-2.02-2.74-.89-.81-1.97-1.49-3.25-2.03l-4.86-2.06c-.87-.38-1.47-.78-1.81-1.18-.34-.41-.5-.87-.5-1.39,0-.56.24-1.1.72-1.62.48-.52,1.29-.79,2.42-.79,1.07,0,2.27.21,3.61.62,1.34.42,2.51.87,3.51,1.36.62-.59,1.11-1.31,1.49-2.18.38-.86.59-1.77.64-2.71-1.03-.56-2.36-1.09-4-1.58-1.64-.5-3.39-.75-5.26-.75s-3.41.36-4.86,1.07c-1.45.72-2.61,1.71-3.46,2.98s-1.28,2.76-1.28,4.46c0,1.95.53,3.51,1.6,4.7s2.41,2.13,4.05,2.84l4.76,2.04c1.11.48,1.8,1,2.07,1.56.28.57.41,1.07.41,1.5,0,.65-.25,1.27-.75,1.84-.5.57-1.32.86-2.47.86-1.41,0-2.82-.28-4.22-.83-1.41-.55-2.67-1.17-3.79-1.85-.61.54-1.14,1.26-1.61,2.16-.47.89-.74,1.8-.82,2.73,1.46.98,3.09,1.73,4.89,2.25,1.8.52,3.51.78,5.11.78,2.3,0,4.22-.39,5.75-1.15s2.68-1.81,3.45-3.14c.77-1.32,1.15-2.81,1.15-4.45,0-1.18-.23-2.28-.69-3.3Z"/>
    </g>
  </g>
  <text class="cls-4" transform="translate(325.67 166.37)"><tspan class="cls-1" x="0" y="0">F</tspan><tspan class="cls-6" x="105.2" y="0">OSDEM</tspan></text>
</svg>
